<svg xmlns="http://www.w3.org/2000/svg" xmlns:xlink="http://www.w3.org/1999/xlink" contentStyleType="text/css" height="1819px" preserveAspectRatio="none" style="width:1305px;height:1819px;background:#FFFFFF;" version="1.1" viewBox="0 0 1305 1819" width="1305px" zoomAndPan="magnify"><title>Activity Diagram - Alur Pemesanan Sistem ZEO</title><defs/><g><text fill="#000000" font-family="sans-serif" font-size="14" font-weight="bold" lengthAdjust="spacing" textLength="371.3623" x="465.5237" y="32.9951">Activity Diagram - Alur Pemesanan Sistem ZEO</text><rect fill="none" height="20.9531" style="stroke:none;stroke-width:1.0;" width="1272.4097" x="15" y="50.042"/><ellipse cx="220.8838" cy="85.9951" fill="#222222" rx="10" ry="10" style="stroke:#222222;stroke-width:1.0;"/><rect fill="#F1F1F1" height="33.9688" rx="12.5" ry="12.5" style="stroke:#181818;stroke-width:0.5;" width="134.6855" x="153.541" y="115.9951"/><text fill="#000000" font-family="sans-serif" font-size="12" lengthAdjust="spacing" textLength="114.6855" x="163.541" y="137.1338">Scan Barcode Meja</text><rect fill="#F1F1F1" height="33.9688" rx="12.5" ry="12.5" style="stroke:#181818;stroke-width:0.5;" width="202.4844" x="119.6416" y="169.9639"/><text fill="#000000" font-family="sans-serif" font-size="12" lengthAdjust="spacing" textLength="182.4844" x="129.6416" y="191.1025">Buka Aplikasi / Halaman Menu</text><rect fill="#F1F1F1" height="33.9688" rx="12.5" ry="12.5" style="stroke:#181818;stroke-width:0.5;" width="135.834" x="152.9668" y="277.9014"/><text fill="#000000" font-family="sans-serif" font-size="12" lengthAdjust="spacing" textLength="115.834" x="162.9668" y="299.04">Lihat Katalog Menu</text><rect fill="#F1F1F1" height="33.9688" rx="12.5" ry="12.5" style="stroke:#181818;stroke-width:0.5;" width="81.6055" x="180.0811" y="375.8701"/><text fill="#000000" font-family="sans-serif" font-size="12" lengthAdjust="spacing" textLength="61.6055" x="190.0811" y="397.0088">Pilih Menu</text><rect fill="#F1F1F1" height="33.9688" rx="12.5" ry="12.5" style="stroke:#181818;stroke-width:0.5;" width="151.9648" x="144.9014" y="429.8389"/><text fill="#000000" font-family="sans-serif" font-size="12" lengthAdjust="spacing" textLength="131.9648" x="154.9014" y="450.9775">Tambah ke Keranjang</text><polygon fill="#F1F1F1" points="168.0591,498.8076,273.7085,498.8076,285.7085,510.8076,273.7085,522.8076,168.0591,522.8076,156.0591,510.8076,168.0591,498.8076" style="stroke:#181818;stroke-width:0.5;"/><text fill="#000000" font-family="sans-serif" font-size="11" lengthAdjust="spacing" textLength="29.8687" x="224.8838" y="533.0181">Tidak</text><text fill="#000000" font-family="sans-serif" font-size="11" lengthAdjust="spacing" textLength="105.6494" x="168.0591" y="514.6157">Tambah Item Lagi?</text><text fill="#000000" font-family="sans-serif" font-size="11" lengthAdjust="spacing" textLength="13.46" x="285.7085" y="508.2134">Ya</text><polygon fill="#F1F1F1" points="220.8838,331.8701,232.8838,343.8701,220.8838,355.8701,208.8838,343.8701,220.8838,331.8701" style="stroke:#181818;stroke-width:0.5;"/><polygon fill="#F1F1F1" points="182.7034,586.21,259.0642,586.21,271.0642,598.21,259.0642,610.21,182.7034,610.21,170.7034,598.21,182.7034,586.21" style="stroke:#181818;stroke-width:0.5;"/><text fill="#000000" font-family="sans-serif" font-size="11" lengthAdjust="spacing" textLength="76.3608" x="182.7034" y="602.0181">Lanjut Pesan?</text><polygon fill="#F1F1F1" points="220.8838,630.21,232.8838,642.21,220.8838,654.21,208.8838,642.21,220.8838,630.21" style="stroke:#181818;stroke-width:0.5;"/><rect fill="#F1F1F1" height="33.9688" rx="12.5" ry="12.5" style="stroke:#181818;stroke-width:0.5;" width="128.2227" x="156.7725" y="674.21"/><text fill="#000000" font-family="sans-serif" font-size="12" lengthAdjust="spacing" textLength="108.2227" x="166.7725" y="695.3486">Review Keranjang</text><rect fill="#F1F1F1" height="33.9688" rx="12.5" ry="12.5" style="stroke:#181818;stroke-width:0.5;" width="138.541" x="151.6133" y="728.1787"/><text fill="#000000" font-family="sans-serif" font-size="12" lengthAdjust="spacing" textLength="118.541" x="161.6133" y="749.3174">Konfirmasi Pesanan</text><rect fill="#F1F1F1" height="33.9688" rx="12.5" ry="12.5" style="stroke:#181818;stroke-width:0.5;" width="140.3809" x="21" y="1569.7725"/><text fill="#000000" font-family="sans-serif" font-size="12" lengthAdjust="spacing" textLength="120.3809" x="31" y="1590.9111">Terima Struk Digital</text><rect fill="#F1F1F1" height="33.9688" rx="12.5" ry="12.5" style="stroke:#181818;stroke-width:0.5;" width="117.2598" x="32.5605" y="1623.7412"/><text fill="#000000" font-family="sans-serif" font-size="12" lengthAdjust="spacing" textLength="97.2598" x="42.5605" y="1644.8799">Pesanan Selesai</text><rect fill="#F1F1F1" height="33.9688" rx="12.5" ry="12.5" style="stroke:#181818;stroke-width:0.5;" width="243.5469" x="228.8037" y="1353.8975"/><text fill="#000000" font-family="sans-serif" font-size="12" lengthAdjust="spacing" textLength="223.5469" x="238.8037" y="1375.0361">Informasikan Kesalahan Pembayaran</text><rect fill="#F1F1F1" height="33.9688" rx="12.5" ry="12.5" style="stroke:#181818;stroke-width:0.5;" width="197.2813" x="251.9365" y="1407.8662"/><text fill="#000000" font-family="sans-serif" font-size="12" lengthAdjust="spacing" textLength="177.2813" x="261.9365" y="1429.0049">Ulangi / Perbaiki Pembayaran</text><polygon fill="#F1F1F1" points="184.2852,1697.71,257.4824,1697.71,269.4824,1709.71,257.4824,1721.71,184.2852,1721.71,172.2852,1709.71,184.2852,1697.71" style="stroke:#181818;stroke-width:0.5;"/><text fill="#000000" font-family="sans-serif" font-size="11" lengthAdjust="spacing" textLength="73.1973" x="184.2852" y="1713.5181">Bayar Ulang?</text><text fill="#000000" font-family="sans-serif" font-size="11" lengthAdjust="spacing" textLength="13.46" x="269.4824" y="1707.1157">Ya</text><ellipse cx="220.8838" cy="1796.71" fill="none" rx="11" ry="11" style="stroke:#222222;stroke-width:1.0;"/><ellipse cx="220.8838" cy="1796.71" fill="#222222" rx="6" ry="6" style="stroke:#222222;stroke-width:1.0;"/><line style="stroke:#000000;stroke-width:1.5;" x1="15" x2="15" y1="50.042" y2="1807.71"/><rect fill="#F1F1F1" height="33.9688" rx="12.5" ry="12.5" style="stroke:#181818;stroke-width:0.5;" width="176.2461" x="608.7627" y="888.1162"/><text fill="#000000" font-family="sans-serif" font-size="12" lengthAdjust="spacing" textLength="156.2461" x="618.7627" y="909.2549">Terima Notifikasi Pesanan</text><rect fill="#F1F1F1" height="33.9688" rx="12.5" ry="12.5" style="stroke:#181818;stroke-width:0.5;" width="122.4336" x="635.6689" y="942.085"/><text fill="#000000" font-family="sans-serif" font-size="12" lengthAdjust="spacing" textLength="102.4336" x="645.6689" y="963.2236">Siapkan Pesanan</text><rect fill="#F1F1F1" height="33.9688" rx="12.5" ry="12.5" style="stroke:#181818;stroke-width:0.5;" width="241.1914" x="576.29" y="996.0537"/><text fill="#000000" font-family="sans-serif" font-size="12" lengthAdjust="spacing" textLength="221.1914" x="586.29" y="1017.1924">Update Status Pesanan &#8594; "Diproses"</text><rect fill="#F1F1F1" height="33.9688" rx="12.5" ry="12.5" style="stroke:#181818;stroke-width:0.5;" width="180.1133" x="606.8291" y="1157.96"/><text fill="#000000" font-family="sans-serif" font-size="12" lengthAdjust="spacing" textLength="160.1133" x="616.8291" y="1179.0986">Pesanan Selesai Disiapkan</text><rect fill="#F1F1F1" height="33.9688" rx="12.5" ry="12.5" style="stroke:#181818;stroke-width:0.5;" width="138.8398" x="627.4658" y="1255.9287"/><text fill="#000000" font-family="sans-serif" font-size="12" lengthAdjust="spacing" textLength="118.8398" x="637.4658" y="1277.0674">Proses Pembayaran</text><polygon fill="#F1F1F1" points="643.8757,1309.8975,749.8958,1309.8975,761.8958,1321.8975,749.8958,1333.8975,643.8757,1333.8975,631.8757,1321.8975,643.8757,1309.8975" style="stroke:#181818;stroke-width:0.5;"/><text fill="#000000" font-family="sans-serif" font-size="11" lengthAdjust="spacing" textLength="106.02" x="643.8757" y="1325.7056">Pembayaran Valid?</text><text fill="#000000" font-family="sans-serif" font-size="11" lengthAdjust="spacing" textLength="13.46" x="618.4158" y="1319.3032">Ya</text><text fill="#000000" font-family="sans-serif" font-size="11" lengthAdjust="spacing" textLength="29.8687" x="761.8958" y="1319.3032">Tidak</text><rect fill="#F1F1F1" height="33.9688" rx="12.5" ry="12.5" style="stroke:#181818;stroke-width:0.5;" width="163.3789" x="485.5029" y="1353.8975"/><text fill="#000000" font-family="sans-serif" font-size="12" lengthAdjust="spacing" textLength="143.3789" x="495.5029" y="1375.0361">Konfirmasi Pembayaran</text><rect fill="#F1F1F1" height="33.9688" rx="12.5" ry="12.5" style="stroke:#181818;stroke-width:0.5;" width="169.6836" x="482.3506" y="1515.8037"/><text fill="#000000" font-family="sans-serif" font-size="12" lengthAdjust="spacing" textLength="149.6836" x="492.3506" y="1536.9424">Cetak Struk Digital (PDF)</text><polygon fill="#F1F1F1" points="696.8857,1211.9287,708.8857,1223.9287,696.8857,1235.9287,684.8857,1223.9287,696.8857,1211.9287" style="stroke:#181818;stroke-width:0.5;"/><polygon fill="#F1F1F1" points="696.8857,1741.71,708.8857,1753.71,696.8857,1765.71,684.8857,1753.71,696.8857,1741.71" style="stroke:#181818;stroke-width:0.5;"/><line style="stroke:#000000;stroke-width:1.5;" x1="476.3506" x2="476.3506" y1="50.042" y2="1807.71"/><rect fill="#F1F1F1" height="33.9688" rx="12.5" ry="12.5" style="stroke:#181818;stroke-width:0.5;" width="211.4492" x="969.0635" y="223.9326"/><text fill="#000000" font-family="sans-serif" font-size="12" lengthAdjust="spacing" textLength="191.4492" x="979.0635" y="245.0713">Tampilkan Katalog Menu Digital</text><rect fill="#555555" height="6" rx="2.5" ry="2.5" style="stroke:#555555;stroke-width:1.0;" width="415.5215" x="866.0273" y="782.1475"/><rect fill="#F1F1F1" height="33.9688" rx="12.5" ry="12.5" style="stroke:#181818;stroke-width:0.5;" width="199.0391" x="880.0273" y="808.1475"/><text fill="#000000" font-family="sans-serif" font-size="12" lengthAdjust="spacing" textLength="179.0391" x="890.0273" y="829.2861">Simpan Pesanan ke Database</text><rect fill="#F1F1F1" height="33.9688" rx="12.5" ry="12.5" style="stroke:#181818;stroke-width:0.5;" width="162.4824" x="1107.0664" y="808.1475"/><text fill="#000000" font-family="sans-serif" font-size="12" lengthAdjust="spacing" textLength="142.4824" x="1117.0664" y="829.2861">Kirim Notifikasi ke Kasir</text><rect fill="#555555" height="6" rx="2.5" ry="2.5" style="stroke:#555555;stroke-width:1.0;" width="415.5215" x="866.0273" y="862.1162"/><rect fill="#F1F1F1" height="33.9688" rx="12.5" ry="12.5" style="stroke:#181818;stroke-width:0.5;" width="219.0137" x="965.2813" y="1050.0225"/><text fill="#000000" font-family="sans-serif" font-size="12" lengthAdjust="spacing" textLength="199.0137" x="975.2813" y="1071.1611">Kurangi Stok Inventaris Otomatis</text><rect fill="#F1F1F1" height="33.9688" rx="12.5" ry="12.5" style="stroke:#181818;stroke-width:0.5;" width="166.7656" x="991.4053" y="1103.9912"/><text fill="#000000" font-family="sans-serif" font-size="12" lengthAdjust="spacing" textLength="146.7656" x="1001.4053" y="1125.1299">Catat ke Laporan Harian</text><rect fill="#F1F1F1" height="33.9688" rx="12.5" ry="12.5" style="stroke:#181818;stroke-width:0.5;" width="192.8926" x="848.6484" y="1407.8662"/><text fill="#000000" font-family="sans-serif" font-size="12" lengthAdjust="spacing" textLength="172.8926" x="858.6484" y="1429.0049">Catat Transaksi ke Database</text><rect fill="#F1F1F1" height="33.9688" rx="12.5" ry="12.5" style="stroke:#181818;stroke-width:0.5;" width="235.2266" x="827.4814" y="1461.835"/><text fill="#000000" font-family="sans-serif" font-size="12" lengthAdjust="spacing" textLength="215.2266" x="837.4814" y="1482.9736">Update Laporan Pendapatan Harian</text><line style="stroke:#000000;stroke-width:1.5;" x1="821.4814" x2="821.4814" y1="50.042" y2="1807.71"/><line style="stroke:#000000;stroke-width:1.5;" x1="1285.5488" x2="1285.5488" y1="50.042" y2="1807.71"/><line style="stroke:#181818;stroke-width:1.0;" x1="220.8838" x2="220.8838" y1="95.9951" y2="115.9951"/><polygon fill="#181818" points="216.8838,105.9951,220.8838,115.9951,224.8838,105.9951,220.8838,109.9951" style="stroke:#181818;stroke-width:1.0;"/><line style="stroke:#181818;stroke-width:1.0;" x1="220.8838" x2="220.8838" y1="149.9639" y2="169.9639"/><polygon fill="#181818" points="216.8838,159.9639,220.8838,169.9639,224.8838,159.9639,220.8838,163.9639" style="stroke:#181818;stroke-width:1.0;"/><line style="stroke:#181818;stroke-width:1.0;" x1="220.8838" x2="220.8838" y1="409.8389" y2="429.8389"/><polygon fill="#181818" points="216.8838,419.8389,220.8838,429.8389,224.8838,419.8389,220.8838,423.8389" style="stroke:#181818;stroke-width:1.0;"/><line style="stroke:#181818;stroke-width:1.0;" x1="220.8838" x2="220.8838" y1="522.8076" y2="547.21"/><line style="stroke:#181818;stroke-width:1.0;" x1="220.8838" x2="134.9014" y1="547.21" y2="547.21"/><line style="stroke:#181818;stroke-width:1.0;" x1="134.9014" x2="134.9014" y1="547.21" y2="642.21"/><line style="stroke:#181818;stroke-width:1.0;" x1="134.9014" x2="208.8838" y1="642.21" y2="642.21"/><polygon fill="#181818" points="198.8838,638.21,208.8838,642.21,198.8838,646.21,202.8838,642.21" style="stroke:#181818;stroke-width:1.0;"/><line style="stroke:#181818;stroke-width:1.0;" x1="285.7085" x2="297.7085" y1="510.8076" y2="510.8076"/><polygon fill="#181818" points="293.7085,534.21,297.7085,544.21,301.7085,534.21,297.7085,538.21" style="stroke:#181818;stroke-width:1.0;"/><line style="stroke:#181818;stroke-width:1.0;" x1="297.7085" x2="297.7085" y1="510.8076" y2="566.21"/><line style="stroke:#181818;stroke-width:1.0;" x1="297.7085" x2="220.8838" y1="566.21" y2="566.21"/><line style="stroke:#181818;stroke-width:1.0;" x1="220.8838" x2="220.8838" y1="566.21" y2="586.21"/><polygon fill="#181818" points="216.8838,576.21,220.8838,586.21,224.8838,576.21,220.8838,580.21" style="stroke:#181818;stroke-width:1.0;"/><line style="stroke:#181818;stroke-width:1.0;" x1="220.8838" x2="220.8838" y1="463.8076" y2="498.8076"/><polygon fill="#181818" points="216.8838,488.8076,220.8838,498.8076,224.8838,488.8076,220.8838,492.8076" style="stroke:#181818;stroke-width:1.0;"/><line style="stroke:#181818;stroke-width:1.0;" x1="220.8838" x2="220.8838" y1="355.8701" y2="375.8701"/><polygon fill="#181818" points="216.8838,365.8701,220.8838,375.8701,224.8838,365.8701,220.8838,369.8701" style="stroke:#181818;stroke-width:1.0;"/><line style="stroke:#181818;stroke-width:1.0;" x1="271.0642" x2="309.7085" y1="598.21" y2="598.21"/><polygon fill="#181818" points="305.7085,479.2412,309.7085,469.2412,313.7085,479.2412,309.7085,475.2412" style="stroke:#181818;stroke-width:1.0;"/><line style="stroke:#181818;stroke-width:1.0;" x1="309.7085" x2="309.7085" y1="343.8701" y2="598.21"/><line style="stroke:#181818;stroke-width:1.0;" x1="309.7085" x2="232.8838" y1="343.8701" y2="343.8701"/><polygon fill="#181818" points="242.8838,339.8701,232.8838,343.8701,242.8838,347.8701,238.8838,343.8701" style="stroke:#181818;stroke-width:1.0;"/><line style="stroke:#181818;stroke-width:1.0;" x1="220.8838" x2="220.8838" y1="610.21" y2="630.21"/><polygon fill="#181818" points="216.8838,620.21,220.8838,630.21,224.8838,620.21,220.8838,624.21" style="stroke:#181818;stroke-width:1.0;"/><line style="stroke:#181818;stroke-width:1.0;" x1="220.8838" x2="220.8838" y1="311.8701" y2="331.8701"/><polygon fill="#181818" points="216.8838,321.8701,220.8838,331.8701,224.8838,321.8701,220.8838,325.8701" style="stroke:#181818;stroke-width:1.0;"/><line style="stroke:#181818;stroke-width:1.0;" x1="220.8838" x2="220.8838" y1="654.21" y2="674.21"/><polygon fill="#181818" points="216.8838,664.21,220.8838,674.21,224.8838,664.21,220.8838,668.21" style="stroke:#181818;stroke-width:1.0;"/><line style="stroke:#181818;stroke-width:1.0;" x1="220.8838" x2="220.8838" y1="708.1787" y2="728.1787"/><polygon fill="#181818" points="216.8838,718.1787,220.8838,728.1787,224.8838,718.1787,220.8838,722.1787" style="stroke:#181818;stroke-width:1.0;"/><line style="stroke:#181818;stroke-width:1.0;" x1="91.1904" x2="91.1904" y1="1603.7412" y2="1623.7412"/><polygon fill="#181818" points="87.1904,1613.7412,91.1904,1623.7412,95.1904,1613.7412,91.1904,1617.7412" style="stroke:#181818;stroke-width:1.0;"/><line style="stroke:#181818;stroke-width:1.0;" x1="91.1904" x2="91.1904" y1="1657.71" y2="1677.71"/><polygon fill="#181818" points="87.1904,1667.71,91.1904,1677.71,95.1904,1667.71,91.1904,1671.71" style="stroke:#181818;stroke-width:1.0;"/><line style="stroke:#181818;stroke-width:1.0;" x1="350.5771" x2="350.5771" y1="1387.8662" y2="1407.8662"/><polygon fill="#181818" points="346.5771,1397.8662,350.5771,1407.8662,354.5771,1397.8662,350.5771,1401.8662" style="stroke:#181818;stroke-width:1.0;"/><line style="stroke:#181818;stroke-width:1.0;" x1="696.8857" x2="696.8857" y1="922.085" y2="942.085"/><polygon fill="#181818" points="692.8857,932.085,696.8857,942.085,700.8857,932.085,696.8857,936.085" style="stroke:#181818;stroke-width:1.0;"/><line style="stroke:#181818;stroke-width:1.0;" x1="696.8857" x2="696.8857" y1="976.0537" y2="996.0537"/><polygon fill="#181818" points="692.8857,986.0537,696.8857,996.0537,700.8857,986.0537,696.8857,990.0537" style="stroke:#181818;stroke-width:1.0;"/><line style="stroke:#181818;stroke-width:1.0;" x1="631.8757" x2="567.1924" y1="1321.8975" y2="1321.8975"/><line style="stroke:#181818;stroke-width:1.0;" x1="567.1924" x2="567.1924" y1="1321.8975" y2="1353.8975"/><polygon fill="#181818" points="563.1924,1343.8975,567.1924,1353.8975,571.1924,1343.8975,567.1924,1347.8975" style="stroke:#181818;stroke-width:1.0;"/><line style="stroke:#181818;stroke-width:1.0;" x1="696.8857" x2="696.8857" y1="1289.8975" y2="1309.8975"/><polygon fill="#181818" points="692.8857,1299.8975,696.8857,1309.8975,700.8857,1299.8975,696.8857,1303.8975" style="stroke:#181818;stroke-width:1.0;"/><line style="stroke:#181818;stroke-width:1.0;" x1="696.8857" x2="696.8857" y1="1235.9287" y2="1255.9287"/><polygon fill="#181818" points="692.8857,1245.9287,696.8857,1255.9287,700.8857,1245.9287,696.8857,1249.9287" style="stroke:#181818;stroke-width:1.0;"/><line style="stroke:#181818;stroke-width:1.0;" x1="696.8857" x2="696.8857" y1="1191.9287" y2="1211.9287"/><polygon fill="#181818" points="692.8857,1201.9287,696.8857,1211.9287,700.8857,1201.9287,696.8857,1205.9287" style="stroke:#181818;stroke-width:1.0;"/><line style="stroke:#181818;stroke-width:1.0;" x1="979.5469" x2="979.5469" y1="788.1475" y2="808.1475"/><polygon fill="#181818" points="975.5469,798.1475,979.5469,808.1475,983.5469,798.1475,979.5469,802.1475" style="stroke:#181818;stroke-width:1.0;"/><line style="stroke:#181818;stroke-width:1.0;" x1="1188.3076" x2="1188.3076" y1="788.1475" y2="808.1475"/><polygon fill="#181818" points="1184.3076,798.1475,1188.3076,808.1475,1192.3076,798.1475,1188.3076,802.1475" style="stroke:#181818;stroke-width:1.0;"/><line style="stroke:#181818;stroke-width:1.0;" x1="979.5469" x2="979.5469" y1="842.1162" y2="862.1162"/><polygon fill="#181818" points="975.5469,852.1162,979.5469,862.1162,983.5469,852.1162,979.5469,856.1162" style="stroke:#181818;stroke-width:1.0;"/><line style="stroke:#181818;stroke-width:1.0;" x1="1188.3076" x2="1188.3076" y1="842.1162" y2="862.1162"/><polygon fill="#181818" points="1184.3076,852.1162,1188.3076,862.1162,1192.3076,852.1162,1188.3076,856.1162" style="stroke:#181818;stroke-width:1.0;"/><line style="stroke:#181818;stroke-width:1.0;" x1="1074.7881" x2="1074.7881" y1="1083.9912" y2="1103.9912"/><polygon fill="#181818" points="1070.7881,1093.9912,1074.7881,1103.9912,1078.7881,1093.9912,1074.7881,1097.9912" style="stroke:#181818;stroke-width:1.0;"/><line style="stroke:#181818;stroke-width:1.0;" x1="945.0947" x2="945.0947" y1="1441.835" y2="1461.835"/><polygon fill="#181818" points="941.0947,1451.835,945.0947,1461.835,949.0947,1451.835,945.0947,1455.835" style="stroke:#181818;stroke-width:1.0;"/><line style="stroke:#181818;stroke-width:1.0;" x1="220.8838" x2="220.8838" y1="203.9326" y2="208.9326"/><line style="stroke:#181818;stroke-width:1.0;" x1="220.8838" x2="1074.7881" y1="208.9326" y2="208.9326"/><line style="stroke:#181818;stroke-width:1.0;" x1="1074.7881" x2="1074.7881" y1="208.9326" y2="223.9326"/><polygon fill="#181818" points="1070.7881,213.9326,1074.7881,223.9326,1078.7881,213.9326,1074.7881,217.9326" style="stroke:#181818;stroke-width:1.0;"/><line style="stroke:#181818;stroke-width:1.0;" x1="1074.7881" x2="1074.7881" y1="257.9014" y2="262.9014"/><line style="stroke:#181818;stroke-width:1.0;" x1="1074.7881" x2="220.8838" y1="262.9014" y2="262.9014"/><line style="stroke:#181818;stroke-width:1.0;" x1="220.8838" x2="220.8838" y1="262.9014" y2="277.9014"/><polygon fill="#181818" points="216.8838,267.9014,220.8838,277.9014,224.8838,267.9014,220.8838,271.9014" style="stroke:#181818;stroke-width:1.0;"/><line style="stroke:#181818;stroke-width:1.0;" x1="220.8838" x2="220.8838" y1="762.1475" y2="767.1475"/><line style="stroke:#181818;stroke-width:1.0;" x1="220.8838" x2="1074.7881" y1="767.1475" y2="767.1475"/><line style="stroke:#181818;stroke-width:1.0;" x1="1074.7881" x2="1074.7881" y1="767.1475" y2="782.1475"/><polygon fill="#181818" points="1070.7881,772.1475,1074.7881,782.1475,1078.7881,772.1475,1074.7881,776.1475" style="stroke:#181818;stroke-width:1.0;"/><line style="stroke:#181818;stroke-width:1.0;" x1="1074.7881" x2="1074.7881" y1="868.1162" y2="873.1162"/><line style="stroke:#181818;stroke-width:1.0;" x1="1074.7881" x2="696.8857" y1="873.1162" y2="873.1162"/><line style="stroke:#181818;stroke-width:1.0;" x1="696.8857" x2="696.8857" y1="873.1162" y2="888.1162"/><polygon fill="#181818" points="692.8857,878.1162,696.8857,888.1162,700.8857,878.1162,696.8857,882.1162" style="stroke:#181818;stroke-width:1.0;"/><line style="stroke:#181818;stroke-width:1.0;" x1="696.8857" x2="696.8857" y1="1030.0225" y2="1035.0225"/><line style="stroke:#181818;stroke-width:1.0;" x1="696.8857" x2="1074.7881" y1="1035.0225" y2="1035.0225"/><line style="stroke:#181818;stroke-width:1.0;" x1="1074.7881" x2="1074.7881" y1="1035.0225" y2="1050.0225"/><polygon fill="#181818" points="1070.7881,1040.0225,1074.7881,1050.0225,1078.7881,1040.0225,1074.7881,1044.0225" style="stroke:#181818;stroke-width:1.0;"/><line style="stroke:#181818;stroke-width:1.0;" x1="1074.7881" x2="1074.7881" y1="1137.96" y2="1142.96"/><line style="stroke:#181818;stroke-width:1.0;" x1="1074.7881" x2="696.8857" y1="1142.96" y2="1142.96"/><line style="stroke:#181818;stroke-width:1.0;" x1="696.8857" x2="696.8857" y1="1142.96" y2="1157.96"/><polygon fill="#181818" points="692.8857,1147.96,696.8857,1157.96,700.8857,1147.96,696.8857,1151.96" style="stroke:#181818;stroke-width:1.0;"/><line style="stroke:#181818;stroke-width:1.0;" x1="567.1924" x2="567.1924" y1="1387.8662" y2="1392.8662"/><line style="stroke:#181818;stroke-width:1.0;" x1="567.1924" x2="945.0947" y1="1392.8662" y2="1392.8662"/><line style="stroke:#181818;stroke-width:1.0;" x1="945.0947" x2="945.0947" y1="1392.8662" y2="1407.8662"/><polygon fill="#181818" points="941.0947,1397.8662,945.0947,1407.8662,949.0947,1397.8662,945.0947,1401.8662" style="stroke:#181818;stroke-width:1.0;"/><line style="stroke:#181818;stroke-width:1.0;" x1="945.0947" x2="945.0947" y1="1495.8037" y2="1500.8037"/><line style="stroke:#181818;stroke-width:1.0;" x1="945.0947" x2="567.1924" y1="1500.8037" y2="1500.8037"/><line style="stroke:#181818;stroke-width:1.0;" x1="567.1924" x2="567.1924" y1="1500.8037" y2="1515.8037"/><polygon fill="#181818" points="563.1924,1505.8037,567.1924,1515.8037,571.1924,1505.8037,567.1924,1509.8037" style="stroke:#181818;stroke-width:1.0;"/><line style="stroke:#181818;stroke-width:1.0;" x1="567.1924" x2="567.1924" y1="1549.7725" y2="1554.7725"/><line style="stroke:#181818;stroke-width:1.0;" x1="567.1924" x2="91.1904" y1="1554.7725" y2="1554.7725"/><line style="stroke:#181818;stroke-width:1.0;" x1="91.1904" x2="91.1904" y1="1554.7725" y2="1569.7725"/><polygon fill="#181818" points="87.1904,1559.7725,91.1904,1569.7725,95.1904,1559.7725,91.1904,1563.7725" style="stroke:#181818;stroke-width:1.0;"/><line style="stroke:#181818;stroke-width:1.0;" x1="761.8958" x2="773.8958" y1="1321.8975" y2="1321.8975"/><line style="stroke:#181818;stroke-width:1.0;" x1="773.8958" x2="773.8958" y1="1321.8975" y2="1339.8975"/><line style="stroke:#181818;stroke-width:1.0;" x1="773.8958" x2="350.5771" y1="1339.8975" y2="1339.8975"/><line style="stroke:#181818;stroke-width:1.0;" x1="350.5771" x2="350.5771" y1="1339.8975" y2="1353.8975"/><polygon fill="#181818" points="346.5771,1343.8975,350.5771,1353.8975,354.5771,1343.8975,350.5771,1347.8975" style="stroke:#181818;stroke-width:1.0;"/><line style="stroke:#181818;stroke-width:1.0;" x1="350.5771" x2="350.5771" y1="1441.835" y2="1682.71"/><line style="stroke:#181818;stroke-width:1.0;" x1="350.5771" x2="220.8838" y1="1682.71" y2="1682.71"/><line style="stroke:#181818;stroke-width:1.0;" x1="220.8838" x2="220.8838" y1="1682.71" y2="1697.71"/><polygon fill="#181818" points="216.8838,1687.71,220.8838,1697.71,224.8838,1687.71,220.8838,1691.71" style="stroke:#181818;stroke-width:1.0;"/><line style="stroke:#181818;stroke-width:1.0;" x1="269.4824" x2="581.0349" y1="1709.71" y2="1709.71"/><polygon fill="#181818" points="577.0349,1492.3193,581.0349,1482.3193,585.0349,1492.3193,581.0349,1488.3193" style="stroke:#181818;stroke-width:1.0;"/><line style="stroke:#181818;stroke-width:1.0;" x1="581.0349" x2="581.0349" y1="1223.9287" y2="1709.71"/><line style="stroke:#181818;stroke-width:1.0;" x1="581.0349" x2="684.8857" y1="1223.9287" y2="1223.9287"/><polygon fill="#181818" points="674.8857,1219.9287,684.8857,1223.9287,674.8857,1227.9287,678.8857,1223.9287" style="stroke:#181818;stroke-width:1.0;"/><line style="stroke:#181818;stroke-width:1.0;" x1="220.8838" x2="220.8838" y1="1721.71" y2="1726.71"/><line style="stroke:#181818;stroke-width:1.0;" x1="220.8838" x2="696.8857" y1="1726.71" y2="1726.71"/><line style="stroke:#181818;stroke-width:1.0;" x1="696.8857" x2="696.8857" y1="1726.71" y2="1741.71"/><polygon fill="#181818" points="692.8857,1731.71,696.8857,1741.71,700.8857,1731.71,696.8857,1735.71" style="stroke:#181818;stroke-width:1.0;"/><line style="stroke:#181818;stroke-width:1.0;" x1="696.8857" x2="696.8857" y1="1765.71" y2="1770.71"/><line style="stroke:#181818;stroke-width:1.0;" x1="696.8857" x2="220.8838" y1="1770.71" y2="1770.71"/><line style="stroke:#181818;stroke-width:1.0;" x1="220.8838" x2="220.8838" y1="1770.71" y2="1785.71"/><polygon fill="#181818" points="216.8838,1775.71,220.8838,1785.71,224.8838,1775.71,220.8838,1779.71" style="stroke:#181818;stroke-width:1.0;"/><text fill="#000000" font-family="sans-serif" font-size="18" lengthAdjust="spacing" textLength="94.6582" x="198.3462" y="66.75">Pelanggan</text><text fill="#000000" font-family="sans-serif" font-size="18" lengthAdjust="spacing" textLength="44.6133" x="626.6094" y="66.75">Kasir</text><text fill="#000000" font-family="sans-serif" font-size="18" lengthAdjust="spacing" textLength="61.4707" x="1022.7798" y="66.75">Sistem</text><!--SRC=[RLJ1Rjim3BtxAuYUaiFGktqeacN50gThiBG3jXkJC3OhMJOaEKM1dFS1-yHzoIZPIUnW9rlY8_du7ctFNXFCTfwFx3zWmLXOhE0Jp7HhOKqLEJHeOCFEKmM_lZmdoMbD6arHe3abfnmTMtbsWDCuwZnQdwIRdLIOeztLUu8dUiCiIUUjGfWrcfKKW7luYXehWJsHQRFaMYzzmQfXhIIKeqTT5n4YJ0kMOpPkcAwuH3z22i9IG-WJW7JDcil-MevIUuibA8ASB9etAHFk-G2JFhGCKw-mu8Sf-98CJ7xYL22a7Gc8zwZ24M1h2LK8c3qV-exmNhAeErb9wTQBcgBbmpH9qkzqP7eVDatpsXpOLa6CTQVvK8L3RKFnTCDL8qhqY41y8QDkqL4MCO05iWd8d2rNyAtsVEWa3aC6hx94A48iU74lVI51un1-8I4ziL7NfdBpskpH4smy-jPToFpz_GVk5jpOsf6x6tcOjp9emP9HArYQ8nbP37RmxEiAFJkf-Ldcy87a2fjQqB8GbZiHpYJFZJQavOrb1Ln7RMnnx1zMTuiVQ6Eqi_Hw1JzGy_x6qY3Qq8HHFi1bceZiwBv8sA7grBqw4H6zIETnrg8wDW8PJ1RBzjDrLScZ4fLigyuBBhGNZzCpUB3gCQ7tRPJHzxzHAnjlwUtwfaiZAn4cZr-QP6Wi8-rR6MuflEfexRr0xHPPZQNx_mSn3s68cMA2B4AqG7uNTPFy0m00]--></g></svg>