<svg xmlns="http://www.w3.org/2000/svg" xmlns:xlink="http://www.w3.org/1999/xlink" contentStyleType="text/css" height="1342px" preserveAspectRatio="none" style="width:1084px;height:1342px;background:#FFFFFF;" version="1.1" viewBox="0 0 1084 1342" width="1084px" zoomAndPan="magnify"><title>Class Diagram - Sistem POS &amp; Manajemen Inventaris "ZEO" Cafe</title><defs/><g><text fill="#000000" font-family="sans-serif" font-size="14" font-weight="bold" lengthAdjust="spacing" textLength="508.7236" x="280.6382" y="22.9951">Class Diagram - Sistem POS &amp; Manajemen Inventaris "ZEO" Cafe</text><!--class User--><g id="elem_User"><rect codeLine="4" fill="#F1F1F1" height="129.4844" id="User" rx="2.5" ry="2.5" style="stroke:#181818;stroke-width:0.5;" width="160.5381" x="479.5" y="44.2969"/><ellipse cx="539.564" cy="60.2969" fill="#A9DCDF" rx="11" ry="11" style="stroke:#181818;stroke-width:1.0;"/><path d="M539.6733,55.6406 L538.5171,60.7188 L540.8452,60.7188 L539.6733,55.6406 Z M538.189,53.4063 L541.1733,53.4063 L544.5327,65.7969 L542.0796,65.7969 L541.314,62.7344 L538.0327,62.7344 L537.2827,65.7969 L534.8452,65.7969 L538.189,53.4063 Z " fill="#000000"/><text fill="#000000" font-family="sans-serif" font-size="14" font-style="italic" lengthAdjust="spacing" textLength="31.9102" x="560.064" y="65.1436">User</text><line style="stroke:#181818;stroke-width:0.5;" x1="480.5" x2="639.0381" y1="76.2969" y2="76.2969"/><polygon fill="none" points="490.5,84.9453,494.5,88.9453,490.5,92.9453,486.5,88.9453" style="stroke:#B38D22;stroke-width:1.0;"/><text fill="#000000" font-family="sans-serif" font-size="14" lengthAdjust="spacing" textLength="80.2471" x="499.5" y="93.292">id         : int</text><polygon fill="none" points="490.5,101.2422,494.5,105.2422,490.5,109.2422,486.5,105.2422" style="stroke:#B38D22;stroke-width:1.0;"/><text fill="#000000" font-family="sans-serif" font-size="14" lengthAdjust="spacing" textLength="121.7686" x="499.5" y="109.5889">nama       : String</text><polygon fill="none" points="490.5,117.5391,494.5,121.5391,490.5,125.5391,486.5,121.5391" style="stroke:#B38D22;stroke-width:1.0;"/><text fill="#000000" font-family="sans-serif" font-size="14" lengthAdjust="spacing" textLength="134.5381" x="499.5" y="125.8857">username   : String</text><polygon fill="none" points="490.5,133.8359,494.5,137.8359,490.5,141.8359,486.5,137.8359" style="stroke:#B38D22;stroke-width:1.0;"/><text fill="#000000" font-family="sans-serif" font-size="14" lengthAdjust="spacing" textLength="131.0107" x="499.5" y="142.1826">password   : String</text><line style="stroke:#181818;stroke-width:0.5;" x1="480.5" x2="639.0381" y1="149.4844" y2="149.4844"/><ellipse cx="490.5" cy="163.1328" fill="#84BE84" rx="3" ry="3" style="stroke:#038048;stroke-width:1.0;"/><text fill="#000000" font-family="sans-serif" font-size="14" lengthAdjust="spacing" textLength="123.5186" x="499.5" y="166.4795">login()   : boolean</text></g><!--class Owner--><g id="elem_Owner"><rect codeLine="13" fill="#F1F1F1" height="113.1875" id="Owner" rx="2.5" ry="2.5" style="stroke:#181818;stroke-width:0.5;" width="214.1387" x="96" y="234.2969"/><ellipse cx="175.9634" cy="250.2969" fill="#ADD1B2" rx="11" ry="11" style="stroke:#181818;stroke-width:1.0;"/><path d="M178.9321,255.9375 Q178.354,256.2344 177.7134,256.375 Q177.0728,256.5313 176.3696,256.5313 Q173.8696,256.5313 172.5415,254.8906 Q171.229,253.2344 171.229,250.1094 Q171.229,246.9844 172.5415,245.3281 Q173.8696,243.6719 176.3696,243.6719 Q177.0728,243.6719 177.7134,243.8281 Q178.3696,243.9844 178.9321,244.2813 L178.9321,247 Q178.3071,246.4219 177.7134,246.1563 Q177.1196,245.875 176.4946,245.875 Q175.1509,245.875 174.4634,246.9531 Q173.7759,248.0156 173.7759,250.1094 Q173.7759,252.2031 174.4634,253.2813 Q175.1509,254.3438 176.4946,254.3438 Q177.1196,254.3438 177.7134,254.0781 Q178.3071,253.7969 178.9321,253.2188 L178.9321,255.9375 Z " fill="#000000"/><text fill="#000000" font-family="sans-serif" font-size="14" lengthAdjust="spacing" textLength="45.7119" x="196.4634" y="255.1436">Owner</text><line style="stroke:#181818;stroke-width:0.5;" x1="97" x2="309.1387" y1="266.2969" y2="266.2969"/><line style="stroke:#181818;stroke-width:0.5;" x1="97" x2="309.1387" y1="274.2969" y2="274.2969"/><ellipse cx="107" cy="287.9453" fill="#84BE84" rx="3" ry="3" style="stroke:#038048;stroke-width:1.0;"/><text fill="#000000" font-family="sans-serif" font-size="14" lengthAdjust="spacing" textLength="165.4023" x="116" y="291.292">kelolaMenu()        : void</text><ellipse cx="107" cy="304.2422" fill="#84BE84" rx="3" ry="3" style="stroke:#038048;stroke-width:1.0;"/><text fill="#000000" font-family="sans-serif" font-size="14" lengthAdjust="spacing" textLength="164.1787" x="116" y="307.5889">lihatLaporan()      : void</text><ellipse cx="107" cy="320.5391" fill="#84BE84" rx="3" ry="3" style="stroke:#038048;stroke-width:1.0;"/><text fill="#000000" font-family="sans-serif" font-size="14" lengthAdjust="spacing" textLength="170.0439" x="116" y="323.8857">kelolaInventaris()  : void</text><ellipse cx="107" cy="336.8359" fill="#84BE84" rx="3" ry="3" style="stroke:#038048;stroke-width:1.0;"/><text fill="#000000" font-family="sans-serif" font-size="14" lengthAdjust="spacing" textLength="188.1387" x="116" y="340.1826">aturRolePengguna()  : void</text></g><!--class Kasir--><g id="elem_Kasir"><rect codeLine="20" fill="#F1F1F1" height="113.1875" id="Kasir" rx="2.5" ry="2.5" style="stroke:#181818;stroke-width:0.5;" width="245.6045" x="803" y="1205.7969"/><ellipse cx="904.2026" cy="1221.7969" fill="#ADD1B2" rx="11" ry="11" style="stroke:#181818;stroke-width:1.0;"/><path d="M907.1714,1227.4375 Q906.5933,1227.7344 905.9526,1227.875 Q905.312,1228.0313 904.6089,1228.0313 Q902.1089,1228.0313 900.7808,1226.3906 Q899.4683,1224.7344 899.4683,1221.6094 Q899.4683,1218.4844 900.7808,1216.8281 Q902.1089,1215.1719 904.6089,1215.1719 Q905.312,1215.1719 905.9526,1215.3281 Q906.6089,1215.4844 907.1714,1215.7813 L907.1714,1218.5 Q906.5464,1217.9219 905.9526,1217.6563 Q905.3589,1217.375 904.7339,1217.375 Q903.3901,1217.375 902.7026,1218.4531 Q902.0151,1219.5156 902.0151,1221.6094 Q902.0151,1223.7031 902.7026,1224.7813 Q903.3901,1225.8438 904.7339,1225.8438 Q905.3589,1225.8438 905.9526,1225.5781 Q906.5464,1225.2969 907.1714,1224.7188 L907.1714,1227.4375 Z " fill="#000000"/><text fill="#000000" font-family="sans-serif" font-size="14" lengthAdjust="spacing" textLength="34.6992" x="924.7026" y="1226.6436">Kasir</text><line style="stroke:#181818;stroke-width:0.5;" x1="804" x2="1047.6045" y1="1237.7969" y2="1237.7969"/><line style="stroke:#181818;stroke-width:0.5;" x1="804" x2="1047.6045" y1="1245.7969" y2="1245.7969"/><ellipse cx="814" cy="1259.4453" fill="#84BE84" rx="3" ry="3" style="stroke:#038048;stroke-width:1.0;"/><text fill="#000000" font-family="sans-serif" font-size="14" lengthAdjust="spacing" textLength="177.1875" x="823" y="1262.792">terimaPesanan()     : void</text><ellipse cx="814" cy="1275.7422" fill="#84BE84" rx="3" ry="3" style="stroke:#038048;stroke-width:1.0;"/><text fill="#000000" font-family="sans-serif" font-size="14" lengthAdjust="spacing" textLength="219.6045" x="823" y="1279.0889">prosesPembayaran()  : boolean</text><ellipse cx="814" cy="1292.0391" fill="#84BE84" rx="3" ry="3" style="stroke:#038048;stroke-width:1.0;"/><text fill="#000000" font-family="sans-serif" font-size="14" lengthAdjust="spacing" textLength="160.918" x="823" y="1295.3857">cetakStruk()        : void</text><ellipse cx="814" cy="1308.3359" fill="#84BE84" rx="3" ry="3" style="stroke:#038048;stroke-width:1.0;"/><text fill="#000000" font-family="sans-serif" font-size="14" lengthAdjust="spacing" textLength="202.9111" x="823" y="1311.6826">updateStatusPesanan(): void</text></g><!--class Pelanggan--><g id="elem_Pelanggan"><rect codeLine="27" fill="#F1F1F1" height="113.1875" id="Pelanggan" rx="2.5" ry="2.5" style="stroke:#181818;stroke-width:0.5;" width="209.8936" x="455" y="377.2969"/><ellipse cx="518.8853" cy="393.2969" fill="#ADD1B2" rx="11" ry="11" style="stroke:#181818;stroke-width:1.0;"/><path d="M521.854,398.9375 Q521.2759,399.2344 520.6353,399.375 Q519.9946,399.5313 519.2915,399.5313 Q516.7915,399.5313 515.4634,397.8906 Q514.1509,396.2344 514.1509,393.1094 Q514.1509,389.9844 515.4634,388.3281 Q516.7915,386.6719 519.2915,386.6719 Q519.9946,386.6719 520.6353,386.8281 Q521.2915,386.9844 521.854,387.2813 L521.854,390 Q521.229,389.4219 520.6353,389.1563 Q520.0415,388.875 519.4165,388.875 Q518.0728,388.875 517.3853,389.9531 Q516.6978,391.0156 516.6978,393.1094 Q516.6978,395.2031 517.3853,396.2813 Q518.0728,397.3438 519.4165,397.3438 Q520.0415,397.3438 520.6353,397.0781 Q521.229,396.7969 521.854,396.2188 L521.854,398.9375 Z " fill="#000000"/><text fill="#000000" font-family="sans-serif" font-size="14" lengthAdjust="spacing" textLength="73.623" x="539.3853" y="398.1436">Pelanggan</text><line style="stroke:#181818;stroke-width:0.5;" x1="456" x2="663.8936" y1="409.2969" y2="409.2969"/><rect fill="none" height="6" style="stroke:#C82930;stroke-width:1.0;" width="6" x="463" y="419.9453"/><text fill="#000000" font-family="sans-serif" font-size="14" lengthAdjust="spacing" textLength="159.4004" x="475" y="426.292">noMeja             : String</text><line style="stroke:#181818;stroke-width:0.5;" x1="456" x2="663.8936" y1="433.5938" y2="433.5938"/><ellipse cx="466" cy="447.2422" fill="#84BE84" rx="3" ry="3" style="stroke:#038048;stroke-width:1.0;"/><text fill="#000000" font-family="sans-serif" font-size="14" lengthAdjust="spacing" textLength="155.8594" x="475" y="450.5889">lihatKatalog()     : void</text><ellipse cx="466" cy="463.5391" fill="#84BE84" rx="3" ry="3" style="stroke:#038048;stroke-width:1.0;"/><text fill="#000000" font-family="sans-serif" font-size="14" lengthAdjust="spacing" textLength="183.8936" x="475" y="466.8857">tambahKeranjang()  : void</text><ellipse cx="466" cy="479.8359" fill="#84BE84" rx="3" ry="3" style="stroke:#038048;stroke-width:1.0;"/><text fill="#000000" font-family="sans-serif" font-size="14" lengthAdjust="spacing" textLength="182.4922" x="475" y="483.1826">konfirmasiPesanan(): void</text></g><!--class Menu--><g id="elem_Menu"><rect codeLine="39" fill="#F1F1F1" height="145.7813" id="Menu" rx="2.5" ry="2.5" style="stroke:#181818;stroke-width:0.5;" width="192.9883" x="300.5" y="1189.2969"/><ellipse cx="373.5249" cy="1205.2969" fill="#ADD1B2" rx="11" ry="11" style="stroke:#181818;stroke-width:1.0;"/><path d="M376.4937,1210.9375 Q375.9155,1211.2344 375.2749,1211.375 Q374.6343,1211.5313 373.9312,1211.5313 Q371.4312,1211.5313 370.103,1209.8906 Q368.7905,1208.2344 368.7905,1205.1094 Q368.7905,1201.9844 370.103,1200.3281 Q371.4312,1198.6719 373.9312,1198.6719 Q374.6343,1198.6719 375.2749,1198.8281 Q375.9312,1198.9844 376.4937,1199.2813 L376.4937,1202 Q375.8687,1201.4219 375.2749,1201.1563 Q374.6812,1200.875 374.0562,1200.875 Q372.7124,1200.875 372.0249,1201.9531 Q371.3374,1203.0156 371.3374,1205.1094 Q371.3374,1207.2031 372.0249,1208.2813 Q372.7124,1209.3438 374.0562,1209.3438 Q374.6812,1209.3438 375.2749,1209.0781 Q375.8687,1208.7969 376.4937,1208.2188 L376.4937,1210.9375 Z " fill="#000000"/><text fill="#000000" font-family="sans-serif" font-size="14" lengthAdjust="spacing" textLength="38.4385" x="394.0249" y="1210.1436">Menu</text><line style="stroke:#181818;stroke-width:0.5;" x1="301.5" x2="492.4883" y1="1221.2969" y2="1221.2969"/><rect fill="none" height="6" style="stroke:#C82930;stroke-width:1.0;" width="6" x="308.5" y="1231.9453"/><text fill="#000000" font-family="sans-serif" font-size="14" lengthAdjust="spacing" textLength="100.8848" x="320.5" y="1238.292">idMenu     : int</text><rect fill="none" height="6" style="stroke:#C82930;stroke-width:1.0;" width="6" x="308.5" y="1248.2422"/><text fill="#000000" font-family="sans-serif" font-size="14" lengthAdjust="spacing" textLength="142.4063" x="320.5" y="1254.5889">namaMenu   : String</text><rect fill="none" height="6" style="stroke:#C82930;stroke-width:1.0;" width="6" x="308.5" y="1264.5391"/><text fill="#000000" font-family="sans-serif" font-size="14" lengthAdjust="spacing" textLength="124.2568" x="320.5" y="1270.8857">harga      : double</text><rect fill="none" height="6" style="stroke:#C82930;stroke-width:1.0;" width="6" x="308.5" y="1280.8359"/><text fill="#000000" font-family="sans-serif" font-size="14" lengthAdjust="spacing" textLength="116.2178" x="320.5" y="1287.1826">status     : String</text><line style="stroke:#181818;stroke-width:0.5;" x1="301.5" x2="492.4883" y1="1294.4844" y2="1294.4844"/><ellipse cx="311.5" cy="1308.1328" fill="#84BE84" rx="3" ry="3" style="stroke:#038048;stroke-width:1.0;"/><text fill="#000000" font-family="sans-serif" font-size="14" lengthAdjust="spacing" textLength="166.9883" x="320.5" y="1311.4795">tampilkanMenu()  : void</text><ellipse cx="311.5" cy="1324.4297" fill="#84BE84" rx="3" ry="3" style="stroke:#038048;stroke-width:1.0;"/><text fill="#000000" font-family="sans-serif" font-size="14" lengthAdjust="spacing" textLength="157.0078" x="320.5" y="1327.7764">updateStatus()   : void</text></g><!--class Pesanan--><g id="elem_Pesanan"><rect codeLine="48" fill="#F1F1F1" height="145.7813" id="Pesanan" rx="2.5" ry="2.5" style="stroke:#181818;stroke-width:0.5;" width="191.5664" x="464" y="743.2969"/><ellipse cx="525.9063" cy="759.2969" fill="#ADD1B2" rx="11" ry="11" style="stroke:#181818;stroke-width:1.0;"/><path d="M528.875,764.9375 Q528.2969,765.2344 527.6563,765.375 Q527.0156,765.5313 526.3125,765.5313 Q523.8125,765.5313 522.4844,763.8906 Q521.1719,762.2344 521.1719,759.1094 Q521.1719,755.9844 522.4844,754.3281 Q523.8125,752.6719 526.3125,752.6719 Q527.0156,752.6719 527.6563,752.8281 Q528.3125,752.9844 528.875,753.2813 L528.875,756 Q528.25,755.4219 527.6563,755.1563 Q527.0625,754.875 526.4375,754.875 Q525.0938,754.875 524.4063,755.9531 Q523.7188,757.0156 523.7188,759.1094 Q523.7188,761.2031 524.4063,762.2813 Q525.0938,763.3438 526.4375,763.3438 Q527.0625,763.3438 527.6563,763.0781 Q528.25,762.7969 528.875,762.2188 L528.875,764.9375 Z " fill="#000000"/><text fill="#000000" font-family="sans-serif" font-size="14" lengthAdjust="spacing" textLength="59.2539" x="546.4063" y="764.1436">Pesanan</text><line style="stroke:#181818;stroke-width:0.5;" x1="465" x2="654.5664" y1="775.2969" y2="775.2969"/><rect fill="none" height="6" style="stroke:#C82930;stroke-width:1.0;" width="6" x="472" y="785.9453"/><text fill="#000000" font-family="sans-serif" font-size="14" lengthAdjust="spacing" textLength="108.3496" x="484" y="792.292">idPesanan  : int</text><rect fill="none" height="6" style="stroke:#C82930;stroke-width:1.0;" width="6" x="472" y="802.2422"/><text fill="#000000" font-family="sans-serif" font-size="14" lengthAdjust="spacing" textLength="146.5215" x="484" y="808.5889">waktu      : DateTime</text><rect fill="none" height="6" style="stroke:#C82930;stroke-width:1.0;" width="6" x="472" y="818.5391"/><text fill="#000000" font-family="sans-serif" font-size="14" lengthAdjust="spacing" textLength="116.2178" x="484" y="824.8857">status     : String</text><rect fill="none" height="6" style="stroke:#C82930;stroke-width:1.0;" width="6" x="472" y="834.8359"/><text fill="#000000" font-family="sans-serif" font-size="14" lengthAdjust="spacing" textLength="135.6729" x="484" y="841.1826">totalHarga : double</text><line style="stroke:#181818;stroke-width:0.5;" x1="465" x2="654.5664" y1="848.4844" y2="848.4844"/><ellipse cx="475" cy="862.1328" fill="#84BE84" rx="3" ry="3" style="stroke:#038048;stroke-width:1.0;"/><text fill="#000000" font-family="sans-serif" font-size="14" lengthAdjust="spacing" textLength="165.5664" x="484" y="865.4795">hitungTotal()    : double</text><ellipse cx="475" cy="878.4297" fill="#84BE84" rx="3" ry="3" style="stroke:#038048;stroke-width:1.0;"/><text fill="#000000" font-family="sans-serif" font-size="14" lengthAdjust="spacing" textLength="157.0078" x="484" y="881.7764">updateStatus()   : void</text></g><!--class DetailPesanan--><g id="elem_DetailPesanan"><rect codeLine="57" fill="#F1F1F1" height="113.1875" id="DetailPesanan" rx="2.5" ry="2.5" style="stroke:#181818;stroke-width:0.5;" width="186.1865" x="467" y="982.7969"/><ellipse cx="506.1611" cy="998.7969" fill="#ADD1B2" rx="11" ry="11" style="stroke:#181818;stroke-width:1.0;"/><path d="M509.1299,1004.4375 Q508.5518,1004.7344 507.9111,1004.875 Q507.2705,1005.0313 506.5674,1005.0313 Q504.0674,1005.0313 502.7393,1003.3906 Q501.4268,1001.7344 501.4268,998.6094 Q501.4268,995.4844 502.7393,993.8281 Q504.0674,992.1719 506.5674,992.1719 Q507.2705,992.1719 507.9111,992.3281 Q508.5674,992.4844 509.1299,992.7813 L509.1299,995.5 Q508.5049,994.9219 507.9111,994.6563 Q507.3174,994.375 506.6924,994.375 Q505.3486,994.375 504.6611,995.4531 Q503.9736,996.5156 503.9736,998.6094 Q503.9736,1000.7031 504.6611,1001.7813 Q505.3486,1002.8438 506.6924,1002.8438 Q507.3174,1002.8438 507.9111,1002.5781 Q508.5049,1002.2969 509.1299,1001.7188 L509.1299,1004.4375 Z " fill="#000000"/><text fill="#000000" font-family="sans-serif" font-size="14" lengthAdjust="spacing" textLength="100.4951" x="525.5303" y="1003.6436">DetailPesanan</text><line style="stroke:#181818;stroke-width:0.5;" x1="468" x2="652.1865" y1="1014.7969" y2="1014.7969"/><rect fill="none" height="6" style="stroke:#C82930;stroke-width:1.0;" width="6" x="475" y="1025.4453"/><text fill="#000000" font-family="sans-serif" font-size="14" lengthAdjust="spacing" textLength="108.1377" x="487" y="1031.792">idDetail      : int</text><rect fill="none" height="6" style="stroke:#C82930;stroke-width:1.0;" width="6" x="475" y="1041.7422"/><text fill="#000000" font-family="sans-serif" font-size="14" lengthAdjust="spacing" textLength="110.7627" x="487" y="1048.0889">jumlah        : int</text><rect fill="none" height="6" style="stroke:#C82930;stroke-width:1.0;" width="6" x="475" y="1058.0391"/><text fill="#000000" font-family="sans-serif" font-size="14" lengthAdjust="spacing" textLength="160.1865" x="487" y="1064.3857">hargaSatuan   : double</text><line style="stroke:#181818;stroke-width:0.5;" x1="468" x2="652.1865" y1="1071.6875" y2="1071.6875"/><ellipse cx="478" cy="1085.3359" fill="#84BE84" rx="3" ry="3" style="stroke:#038048;stroke-width:1.0;"/><text fill="#000000" font-family="sans-serif" font-size="14" lengthAdjust="spacing" textLength="153.9043" x="487" y="1088.6826">getSubtotal() : double</text></g><!--class Inventaris--><g id="elem_Inventaris"><rect codeLine="64" fill="#F1F1F1" height="145.7813" id="Inventaris" rx="2.5" ry="2.5" style="stroke:#181818;stroke-width:0.5;" width="227.749" x="238" y="520.2969"/><ellipse cx="312.7339" cy="536.2969" fill="#ADD1B2" rx="11" ry="11" style="stroke:#181818;stroke-width:1.0;"/><path d="M315.7026,541.9375 Q315.1245,542.2344 314.4839,542.375 Q313.8433,542.5313 313.1401,542.5313 Q310.6401,542.5313 309.312,540.8906 Q307.9995,539.2344 307.9995,536.1094 Q307.9995,532.9844 309.312,531.3281 Q310.6401,529.6719 313.1401,529.6719 Q313.8433,529.6719 314.4839,529.8281 Q315.1401,529.9844 315.7026,530.2813 L315.7026,533 Q315.0776,532.4219 314.4839,532.1563 Q313.8901,531.875 313.2651,531.875 Q311.9214,531.875 311.2339,532.9531 Q310.5464,534.0156 310.5464,536.1094 Q310.5464,538.2031 311.2339,539.2813 Q311.9214,540.3438 313.2651,540.3438 Q313.8901,540.3438 314.4839,540.0781 Q315.0776,539.7969 315.7026,539.2188 L315.7026,541.9375 Z " fill="#000000"/><text fill="#000000" font-family="sans-serif" font-size="14" lengthAdjust="spacing" textLength="69.7813" x="333.2339" y="541.1436">Inventaris</text><line style="stroke:#181818;stroke-width:0.5;" x1="239" x2="464.749" y1="552.2969" y2="552.2969"/><rect fill="none" height="6" style="stroke:#C82930;stroke-width:1.0;" width="6" x="246" y="562.9453"/><text fill="#000000" font-family="sans-serif" font-size="14" lengthAdjust="spacing" textLength="115.8555" x="258" y="569.292">idBahan       : int</text><rect fill="none" height="6" style="stroke:#C82930;stroke-width:1.0;" width="6" x="246" y="579.2422"/><text fill="#000000" font-family="sans-serif" font-size="14" lengthAdjust="spacing" textLength="157.377" x="258" y="585.5889">namaBahan     : String</text><rect fill="none" height="6" style="stroke:#C82930;stroke-width:1.0;" width="6" x="246" y="595.5391"/><text fill="#000000" font-family="sans-serif" font-size="14" lengthAdjust="spacing" textLength="148.1143" x="258" y="601.8857">stokSaatIni   : double</text><rect fill="none" height="6" style="stroke:#C82930;stroke-width:1.0;" width="6" x="246" y="611.8359"/><text fill="#000000" font-family="sans-serif" font-size="14" lengthAdjust="spacing" textLength="134.2373" x="258" y="618.1826">satuan        : String</text><line style="stroke:#181818;stroke-width:0.5;" x1="239" x2="464.749" y1="625.4844" y2="625.4844"/><ellipse cx="249" cy="639.1328" fill="#84BE84" rx="3" ry="3" style="stroke:#038048;stroke-width:1.0;"/><text fill="#000000" font-family="sans-serif" font-size="14" lengthAdjust="spacing" textLength="160.4326" x="258" y="642.4795">kurangiStok()      : void</text><ellipse cx="249" cy="655.4297" fill="#84BE84" rx="3" ry="3" style="stroke:#038048;stroke-width:1.0;"/><text fill="#000000" font-family="sans-serif" font-size="14" lengthAdjust="spacing" textLength="201.749" x="258" y="658.7764">cekKetersediaan()  : boolean</text></g><!--class Transaksi--><g id="elem_Transaksi"><rect codeLine="73" fill="#F1F1F1" height="145.7813" id="Transaksi" rx="2.5" ry="2.5" style="stroke:#181818;stroke-width:0.5;" width="217.2695" x="214.5" y="966.2969"/><ellipse cx="285.4229" cy="982.2969" fill="#ADD1B2" rx="11" ry="11" style="stroke:#181818;stroke-width:1.0;"/><path d="M288.3916,987.9375 Q287.8135,988.2344 287.1729,988.375 Q286.5322,988.5313 285.8291,988.5313 Q283.3291,988.5313 282.001,986.8906 Q280.6885,985.2344 280.6885,982.1094 Q280.6885,978.9844 282.001,977.3281 Q283.3291,975.6719 285.8291,975.6719 Q286.5322,975.6719 287.1729,975.8281 Q287.8291,975.9844 288.3916,976.2813 L288.3916,979 Q287.7666,978.4219 287.1729,978.1563 Q286.5791,977.875 285.9541,977.875 Q284.6104,977.875 283.9229,978.9531 Q283.2354,980.0156 283.2354,982.1094 Q283.2354,984.2031 283.9229,985.2813 Q284.6104,986.3438 285.9541,986.3438 Q286.5791,986.3438 287.1729,986.0781 Q287.7666,985.7969 288.3916,985.2188 L288.3916,987.9375 Z " fill="#000000"/><text fill="#000000" font-family="sans-serif" font-size="14" lengthAdjust="spacing" textLength="66.9238" x="305.9229" y="987.1436">Transaksi</text><line style="stroke:#181818;stroke-width:0.5;" x1="215.5" x2="430.7695" y1="998.2969" y2="998.2969"/><rect fill="none" height="6" style="stroke:#C82930;stroke-width:1.0;" width="6" x="222.5" y="1008.9453"/><text fill="#000000" font-family="sans-serif" font-size="14" lengthAdjust="spacing" textLength="120.4697" x="234.5" y="1015.292">idTransaksi   : int</text><rect fill="none" height="6" style="stroke:#C82930;stroke-width:1.0;" width="6" x="222.5" y="1025.2422"/><text fill="#000000" font-family="sans-serif" font-size="14" lengthAdjust="spacing" textLength="158.9082" x="234.5" y="1031.5889">metodeBayar   : String</text><rect fill="none" height="6" style="stroke:#C82930;stroke-width:1.0;" width="6" x="222.5" y="1041.5391"/><text fill="#000000" font-family="sans-serif" font-size="14" lengthAdjust="spacing" textLength="147.499" x="234.5" y="1047.8857">totalBayar    : double</text><rect fill="none" height="6" style="stroke:#C82930;stroke-width:1.0;" width="6" x="222.5" y="1057.8359"/><text fill="#000000" font-family="sans-serif" font-size="14" lengthAdjust="spacing" textLength="152.1885" x="234.5" y="1064.1826">kembalian     : double</text><line style="stroke:#181818;stroke-width:0.5;" x1="215.5" x2="430.7695" y1="1071.4844" y2="1071.4844"/><ellipse cx="225.5" cy="1085.1328" fill="#84BE84" rx="3" ry="3" style="stroke:#038048;stroke-width:1.0;"/><text fill="#000000" font-family="sans-serif" font-size="14" lengthAdjust="spacing" textLength="191.2695" x="234.5" y="1088.4795">hitungKembalian() : double</text><ellipse cx="225.5" cy="1101.4297" fill="#84BE84" rx="3" ry="3" style="stroke:#038048;stroke-width:1.0;"/><text fill="#000000" font-family="sans-serif" font-size="14" lengthAdjust="spacing" textLength="163.6045" x="234.5" y="1104.7764">generateStruk()   : void</text></g><!--class Laporan--><g id="elem_Laporan"><rect codeLine="82" fill="#F1F1F1" height="129.4844" id="Laporan" rx="2.5" ry="2.5" style="stroke:#181818;stroke-width:0.5;" width="207.5967" x="7" y="1197.7969"/><ellipse cx="78.0288" cy="1213.7969" fill="#ADD1B2" rx="11" ry="11" style="stroke:#181818;stroke-width:1.0;"/><path d="M80.9976,1219.4375 Q80.4194,1219.7344 79.7788,1219.875 Q79.1382,1220.0313 78.4351,1220.0313 Q75.9351,1220.0313 74.6069,1218.3906 Q73.2944,1216.7344 73.2944,1213.6094 Q73.2944,1210.4844 74.6069,1208.8281 Q75.9351,1207.1719 78.4351,1207.1719 Q79.1382,1207.1719 79.7788,1207.3281 Q80.4351,1207.4844 80.9976,1207.7813 L80.9976,1210.5 Q80.3726,1209.9219 79.7788,1209.6563 Q79.1851,1209.375 78.5601,1209.375 Q77.2163,1209.375 76.5288,1210.4531 Q75.8413,1211.5156 75.8413,1213.6094 Q75.8413,1215.7031 76.5288,1216.7813 Q77.2163,1217.8438 78.5601,1217.8438 Q79.1851,1217.8438 79.7788,1217.5781 Q80.3726,1217.2969 80.9976,1216.7188 L80.9976,1219.4375 Z " fill="#000000"/><text fill="#000000" font-family="sans-serif" font-size="14" lengthAdjust="spacing" textLength="57.0391" x="98.5288" y="1218.6436">Laporan</text><line style="stroke:#181818;stroke-width:0.5;" x1="8" x2="213.5967" y1="1229.7969" y2="1229.7969"/><rect fill="none" height="6" style="stroke:#C82930;stroke-width:1.0;" width="6" x="15" y="1240.4453"/><text fill="#000000" font-family="sans-serif" font-size="14" lengthAdjust="spacing" textLength="132.8359" x="27" y="1246.792">idLaporan        : int</text><rect fill="none" height="6" style="stroke:#C82930;stroke-width:1.0;" width="6" x="15" y="1256.7422"/><text fill="#000000" font-family="sans-serif" font-size="14" lengthAdjust="spacing" textLength="140.3145" x="27" y="1263.0889">tanggal          : Date</text><rect fill="none" height="6" style="stroke:#C82930;stroke-width:1.0;" width="6" x="15" y="1273.0391"/><text fill="#000000" font-family="sans-serif" font-size="14" lengthAdjust="spacing" textLength="181.5967" x="27" y="1279.3857">totalPendapatan  : double</text><line style="stroke:#181818;stroke-width:0.5;" x1="8" x2="213.5967" y1="1286.6875" y2="1286.6875"/><ellipse cx="18" cy="1300.3359" fill="#84BE84" rx="3" ry="3" style="stroke:#038048;stroke-width:1.0;"/><text fill="#000000" font-family="sans-serif" font-size="14" lengthAdjust="spacing" textLength="174.6309" x="27" y="1303.6826">generateLaporan() : void</text><ellipse cx="18" cy="1316.6328" fill="#84BE84" rx="3" ry="3" style="stroke:#038048;stroke-width:1.0;"/><text fill="#000000" font-family="sans-serif" font-size="14" lengthAdjust="spacing" textLength="155.3672" x="27" y="1319.9795">eksporPDF()       : void</text></g><!--class Notifikasi--><g id="elem_Notifikasi"><rect codeLine="90" fill="#F1F1F1" height="145.7813" id="Notifikasi" rx="2.5" ry="2.5" style="stroke:#181818;stroke-width:0.5;" width="195.4082" x="828.5" y="966.2969"/><ellipse cx="889.4014" cy="982.2969" fill="#ADD1B2" rx="11" ry="11" style="stroke:#181818;stroke-width:1.0;"/><path d="M892.3701,987.9375 Q891.792,988.2344 891.1514,988.375 Q890.5107,988.5313 889.8076,988.5313 Q887.3076,988.5313 885.9795,986.8906 Q884.667,985.2344 884.667,982.1094 Q884.667,978.9844 885.9795,977.3281 Q887.3076,975.6719 889.8076,975.6719 Q890.5107,975.6719 891.1514,975.8281 Q891.8076,975.9844 892.3701,976.2813 L892.3701,979 Q891.7451,978.4219 891.1514,978.1563 Q890.5576,977.875 889.9326,977.875 Q888.5889,977.875 887.9014,978.9531 Q887.2139,980.0156 887.2139,982.1094 Q887.2139,984.2031 887.9014,985.2813 Q888.5889,986.3438 889.9326,986.3438 Q890.5576,986.3438 891.1514,986.0781 Q891.7451,985.7969 892.3701,985.2188 L892.3701,987.9375 Z " fill="#000000"/><text fill="#000000" font-family="sans-serif" font-size="14" lengthAdjust="spacing" textLength="65.1055" x="909.9014" y="987.1436">Notifikasi</text><line style="stroke:#181818;stroke-width:0.5;" x1="829.5" x2="1022.9082" y1="998.2969" y2="998.2969"/><rect fill="none" height="6" style="stroke:#C82930;stroke-width:1.0;" width="6" x="836.5" y="1008.9453"/><text fill="#000000" font-family="sans-serif" font-size="14" lengthAdjust="spacing" textLength="114.2012" x="848.5" y="1015.292">idNotifikasi  : int</text><rect fill="none" height="6" style="stroke:#C82930;stroke-width:1.0;" width="6" x="836.5" y="1025.2422"/><text fill="#000000" font-family="sans-serif" font-size="14" lengthAdjust="spacing" textLength="133.2461" x="848.5" y="1031.5889">pesan         : String</text><rect fill="none" height="6" style="stroke:#C82930;stroke-width:1.0;" width="6" x="836.5" y="1041.5391"/><text fill="#000000" font-family="sans-serif" font-size="14" lengthAdjust="spacing" textLength="159.8721" x="848.5" y="1047.8857">waktu         : DateTime</text><rect fill="none" height="6" style="stroke:#C82930;stroke-width:1.0;" width="6" x="836.5" y="1057.8359"/><text fill="#000000" font-family="sans-serif" font-size="14" lengthAdjust="spacing" textLength="169.4082" x="848.5" y="1064.1826">sudahDibaca   : boolean</text><line style="stroke:#181818;stroke-width:0.5;" x1="829.5" x2="1022.9082" y1="1071.4844" y2="1071.4844"/><ellipse cx="839.5" cy="1085.1328" fill="#84BE84" rx="3" ry="3" style="stroke:#038048;stroke-width:1.0;"/><text fill="#000000" font-family="sans-serif" font-size="14" lengthAdjust="spacing" textLength="133.9502" x="848.5" y="1088.4795">kirim()           : void</text><ellipse cx="839.5" cy="1101.4297" fill="#84BE84" rx="3" ry="3" style="stroke:#038048;stroke-width:1.0;"/><text fill="#000000" font-family="sans-serif" font-size="14" lengthAdjust="spacing" textLength="160.2275" x="848.5" y="1104.7764">tandaiDibaca()    : void</text></g><!--reverse link User to Owner--><g id="link_User_Owner"><path codeLine="34" d="M463.3674,158.5206 C413.2874,183.7706 364.39,208.4269 310.02,235.8369 " fill="none" id="User-backto-Owner" style="stroke:#181818;stroke-width:1.0;"/><polygon fill="none" points="479.44,150.4169,460.6661,153.163,466.0686,163.8781,479.44,150.4169" style="stroke:#181818;stroke-width:1.0;"/></g><!--reverse link User to Kasir--><g id="link_User_Kasir"><path codeLine="35" d="M658.5755,123.5227 C803.9855,145.6327 1077,198.5569 1077,289.7969 C1077,289.7969 1077,289.7969 1077,1040.2969 C1077,1104.8869 1032.48,1164.4869 991.79,1205.4769 " fill="none" id="User-backto-Kasir" style="stroke:#181818;stroke-width:1.0;"/><polygon fill="none" points="640.78,120.8169,657.6735,129.4545,659.4774,117.5909,640.78,120.8169" style="stroke:#181818;stroke-width:1.0;"/></g><!--reverse link User to Pelanggan--><g id="link_User_Pelanggan"><path codeLine="36" d="M560,191.6069 C560,250.9969 560,320.6069 560,377.1969 " fill="none" id="User-backto-Pelanggan" style="stroke:#181818;stroke-width:1.0;"/><polygon fill="none" points="560,173.6069,554,191.6069,566,191.6069,560,173.6069" style="stroke:#181818;stroke-width:1.0;"/></g><!--reverse link Pesanan to DetailPesanan--><g id="link_Pesanan_DetailPesanan"><path codeLine="101" d="M560,901.3569 C560,931.5869 560,954.1969 560,982.4469 " fill="none" id="Pesanan-backto-DetailPesanan" style="stroke:#181818;stroke-width:1.0;"/><polygon fill="#181818" points="560,889.3569,556,895.3569,560,901.3569,564,895.3569,560,889.3569" style="stroke:#181818;stroke-width:1.0;"/><text fill="#000000" font-family="sans-serif" font-size="13" lengthAdjust="spacing" textLength="55.0278" x="561" y="932.3638">contains</text><text fill="#000000" font-family="sans-serif" font-size="13" lengthAdjust="spacing" textLength="23.0356" x="535.5892" y="971.6678">1..*</text></g><!--link Kasir to Pesanan--><g id="link_Kasir_Pesanan"><path codeLine="104" d="M841.13,1205.5369 C806.94,1180.0669 769.04,1147.6969 741,1112.2969 C696.32,1055.8869 708.22,1027.8869 671,966.2969 C655.32,940.3469 636.18,913.3669 618.25,889.6069 " fill="none" id="Kasir-Pesanan" style="stroke:#181818;stroke-width:1.0;"/><text fill="#000000" font-family="sans-serif" font-size="13" lengthAdjust="spacing" textLength="68.2944" x="742" y="1043.8638">mengelola</text><text fill="#000000" font-family="sans-serif" font-size="13" lengthAdjust="spacing" textLength="8.271" x="822.3396" y="1194.7687">1</text><text fill="#000000" font-family="sans-serif" font-size="13" lengthAdjust="spacing" textLength="23.0356" x="599.5814" y="909.1396">0..*</text></g><!--link Pelanggan to Pesanan--><g id="link_Pelanggan_Pesanan"><path codeLine="105" d="M560,490.5369 C560,557.4169 560,669.6969 560,743.1469 " fill="none" id="Pelanggan-Pesanan" style="stroke:#181818;stroke-width:1.0;"/><text fill="#000000" font-family="sans-serif" font-size="13" lengthAdjust="spacing" textLength="62.8799" x="561" y="597.8638">membuat</text><text fill="#000000" font-family="sans-serif" font-size="13" lengthAdjust="spacing" textLength="8.271" x="551.5355" y="510.4297">1</text><text fill="#000000" font-family="sans-serif" font-size="13" lengthAdjust="spacing" textLength="23.0356" x="535.8911" y="732.2921">0..*</text></g><!--link DetailPesanan to Menu--><g id="link_DetailPesanan_Menu"><path codeLine="106" d="M518.87,1096.0669 C498.03,1124.3269 472.47,1158.9769 450.15,1189.2269 " fill="none" id="DetailPesanan-Menu" style="stroke:#181818;stroke-width:1.0;"/><text fill="#000000" font-family="sans-serif" font-size="13" lengthAdjust="spacing" textLength="53.625" x="484" y="1155.3638">merujuk</text><text fill="#000000" font-family="sans-serif" font-size="13" lengthAdjust="spacing" textLength="23.0356" x="489.4465" y="1115.9633">1..*</text><text fill="#000000" font-family="sans-serif" font-size="13" lengthAdjust="spacing" textLength="8.271" x="447.2332" y="1178.0031">1</text></g><!--link Pesanan to Transaksi--><g id="link_Pesanan_Transaksi"><path codeLine="107" d="M482.73,889.3569 C456.38,913.9169 426.94,941.3769 400.58,965.9569 " fill="none" id="Pesanan-Transaksi" style="stroke:#181818;stroke-width:1.0;"/><text fill="#000000" font-family="sans-serif" font-size="13" lengthAdjust="spacing" textLength="91.0889" x="449" y="932.3638">menghasilkan</text><text fill="#000000" font-family="sans-serif" font-size="13" lengthAdjust="spacing" textLength="8.271" x="467.0175" y="909.1189">1</text><text fill="#000000" font-family="sans-serif" font-size="13" lengthAdjust="spacing" textLength="8.271" x="399.5932" y="955.3355">1</text></g><!--link Transaksi to Laporan--><g id="link_Transaksi_Laporan"><path codeLine="108" d="M253.88,1112.3569 C227.54,1139.8169 197.72,1170.8969 172.17,1197.5269 " fill="none" id="Transaksi-Laporan" style="stroke:#181818;stroke-width:1.0;"/><text fill="#000000" font-family="sans-serif" font-size="13" lengthAdjust="spacing" textLength="64.7969" x="225" y="1155.3638">dicatat ke</text><text fill="#000000" font-family="sans-serif" font-size="13" lengthAdjust="spacing" textLength="23.0356" x="223.1848" y="1132.1189">0..*</text><text fill="#000000" font-family="sans-serif" font-size="13" lengthAdjust="spacing" textLength="8.271" x="170.4598" y="1186.67">1</text></g><!--link Inventaris to Pesanan--><g id="link_Inventaris_Pesanan"><path codeLine="109" d="M395.37,666.4969 C406.43,682.6069 418.92,699.1169 432,713.2969 C441.73,723.8469 452.6,734.2069 463.78,744.0269 " fill="none" id="Inventaris-Pesanan" style="stroke:#181818;stroke-width:1.0;"/><text fill="#000000" font-family="sans-serif" font-size="13" lengthAdjust="spacing" textLength="100.2295" x="433" y="709.3638">digunakan oleh</text><text fill="#000000" font-family="sans-serif" font-size="13" lengthAdjust="spacing" textLength="23.0356" x="375.3212" y="686.0195">0..*</text><text fill="#000000" font-family="sans-serif" font-size="13" lengthAdjust="spacing" textLength="8.271" x="447.8218" y="734.7511">1</text></g><!--link Owner to Menu--><g id="link_Owner_Menu"><path codeLine="110" d="M190.51,347.4069 C178.13,407.4869 161,506.1669 161,592.2969 C161,592.2969 161,592.2969 161,1040.2969 C161,1096.3869 166.31,1116.8769 203,1159.2969 C228.89,1189.2269 265.76,1211.6769 300.42,1227.7769 " fill="none" id="Owner-Menu" style="stroke:#181818;stroke-width:1.0;"/><text fill="#000000" font-family="sans-serif" font-size="13" lengthAdjust="spacing" textLength="68.2944" x="162" y="820.8638">mengelola</text><text fill="#000000" font-family="sans-serif" font-size="13" lengthAdjust="spacing" textLength="8.271" x="180.4057" y="367.6844">1</text><text fill="#000000" font-family="sans-serif" font-size="13" lengthAdjust="spacing" textLength="23.0356" x="269.4846" y="1221.7708">0..*</text></g><!--link Owner to Inventaris--><g id="link_Owner_Inventaris"><path codeLine="111" d="M230.68,347.6169 C254.83,396.3269 290.03,467.3069 316.3,520.2869 " fill="none" id="Owner-Inventaris" style="stroke:#181818;stroke-width:1.0;"/><text fill="#000000" font-family="sans-serif" font-size="13" lengthAdjust="spacing" textLength="68.2944" x="301" y="438.3638">mengelola</text><text fill="#000000" font-family="sans-serif" font-size="13" lengthAdjust="spacing" textLength="8.271" x="225.5741" y="367.5194">1</text><text fill="#000000" font-family="sans-serif" font-size="13" lengthAdjust="spacing" textLength="23.0356" x="288.4473" y="509.0693">0..*</text></g><!--link Owner to Laporan--><g id="link_Owner_Laporan"><path codeLine="112" d="M150.98,347.3469 C103.27,404.2769 40,497.6369 40,592.2969 C40,592.2969 40,592.2969 40,1040.2969 C40,1095.3069 60.19,1154.4869 79.03,1197.7469 " fill="none" id="Owner-Laporan" style="stroke:#181818;stroke-width:1.0;"/><text fill="#000000" font-family="sans-serif" font-size="13" lengthAdjust="spacing" textLength="49.188" x="41" y="820.8638">melihat</text><text fill="#000000" font-family="sans-serif" font-size="13" lengthAdjust="spacing" textLength="8.271" x="135.8109" y="367.6167">1</text><text fill="#000000" font-family="sans-serif" font-size="13" lengthAdjust="spacing" textLength="23.0356" x="51.2995" y="1186.9141">0..*</text></g><!--link Pesanan to Notifikasi--><g id="link_Pesanan_Notifikasi"><path codeLine="113" d="M656.19,866.8869 C686.26,883.0069 719.32,901.3669 749,919.2969 C775.15,935.0869 802.83,953.0669 828.33,970.1769 " fill="none" id="Pesanan-Notifikasi" style="stroke:#181818;stroke-width:1.0;"/><text fill="#000000" font-family="sans-serif" font-size="13" lengthAdjust="spacing" textLength="91.0889" x="774" y="932.3638">menghasilkan</text><text fill="#000000" font-family="sans-serif" font-size="13" lengthAdjust="spacing" textLength="8.271" x="663.5736" y="867.1311">1</text><text fill="#000000" font-family="sans-serif" font-size="13" lengthAdjust="spacing" textLength="8.271" x="812.2227" y="961.1521">1</text></g><!--link Notifikasi to Kasir--><g id="link_Notifikasi_Kasir"><path codeLine="114" d="M926,1112.3569 C926,1142.5869 926,1177.1969 926,1205.4469 " fill="none" id="Notifikasi-Kasir" style="stroke:#181818;stroke-width:1.0;"/><text fill="#000000" font-family="sans-serif" font-size="13" lengthAdjust="spacing" textLength="86.4805" x="927" y="1155.3638">diterima oleh</text><text fill="#000000" font-family="sans-serif" font-size="13" lengthAdjust="spacing" textLength="23.0356" x="901.8862" y="1132.1189">0..*</text><text fill="#000000" font-family="sans-serif" font-size="13" lengthAdjust="spacing" textLength="8.271" x="917.5531" y="1194.6678">1</text></g><!--SRC=[pLR1Zjis4BthAmOkaBHPE4YkYrmswnO9dEqQyVRIsrZYIcD9f21IMHHjWPxw1GNwV_ib6LAYHCfoDiSL31ZYaACtRsRUq92f15nNg3Li2FCMQrZ3dhGHDUnkz_02Rb3YKTH2maVvHKY3BMbO_VxpxGgkyLuaoKju_EyV_i7LGPiMKmC7r69OV3w_13syr8NxcnOj_9a0Fpy0PU2VIo1fXcM9DOxBUzEIp0TBnwVPAauj3Jj_K6qsjrn0fNAIF_xa30UbAe4o-JlWxrh9j1L6EEVwUH6OzAJTFiYHjGieHQKgl16oSr4DF7rHbFc8gK3p2HlLelHReWszXwcmxAPe0vgk_SnKxOJCyqvYi86fwq5jKTC4oeYMQjm9pNNhFngvR5gbXTw9-e1_u01iIaY_9nK6IqvULvw9h6ioD69l69yUlpK7jXCLCcoK0xWrI7KZZWZXCoyIIzaM3NArBA4toBYBhM3WHtP-GbYfv3srDLEo0ClL_Bk_rki-aS6xup1u7w47zRbHDPBisqSyp_gqjJYIJPbxZPjwxPfwC4JShw70DaUVbKnrXqeC5kqIlPGlpaT3LOdIjy7PCXawVruYBaa1PhyIONx0qdGUsOPTtb7z5BOr6CLbzC455SLp0GMPJkPtrjuNsSp-9EuDDmXLf-ZxTJWX_TZL5HQd6ZkGlkSFsPZdE79Xzjt133X7umWZ64aJXlTOE5zBYPziCwwqKUKUqNoKj91-3s-f0igEUp6dFJjOrBXKb5jMzLQBZ70kDsCaT-n4Owaf26HQYmEfXL6PU6_bwqpIlMqUI6bLhwAHWeMYsFej8U4-6omQhYwyCCxBOj3w80Q_if0FunIc2gNGbdOO1yj-XWsheOHpOARn4h4kIithkyqleu3FiVwg3DrJYH7bmMA4jR6LlgpPKNSkDcYNOR6X0wO8fwEc99vNqvGvrNjcWFhJlbLz7ACoVsQrDgIaBgZHp-_czPAlDdMZD5cCbwFcFVx_hvyiePeatlwAvz3gxUlNhrOpkRc4L77NazIMWokjLKfz_4b_5nYUrTiLM1zld8zHM2s5V9_DtTqZcORqKoVgGuScYQ4C-1pI5OppnkrlksDN9e6JoJ__0SJjRH4LZDxEaYGqUJJ3kQ2Xk2CevUOmtDT988Np8r4S6Tbx57y4k0gBfB_H1OG5yK_XH8nzwqY0udkFH07Lmbs0JbcRQ0iRTqPRsBqp3Y2e34j2VqtiEVWA]--></g></svg>