<svg xmlns="http://www.w3.org/2000/svg" xmlns:xlink="http://www.w3.org/1999/xlink" contentStyleType="text/css" height="1131px" preserveAspectRatio="none" style="width:567px;height:1131px;background:#FFFFFF;" version="1.1" viewBox="0 0 567 1131" width="567px" zoomAndPan="magnify"><title>Use Case Diagram - Sistem POS &amp; Manajemen Inventaris "ZEO" Cafe</title><defs/><g><text fill="#000000" font-family="sans-serif" font-size="14" font-weight="bold" lengthAdjust="spacing" textLength="539.1572" x="10" y="22.9951">Use Case Diagram - Sistem POS &amp; Manajemen Inventaris "ZEO" Cafe</text><!--cluster Sistem ZEO--><g id="cluster_Sistem ZEO"><rect fill="none" height="1081" rx="2.5" ry="2.5" style="stroke:#181818;stroke-width:1.0;" width="304" x="238.0786" y="44.2969"/><text fill="#000000" font-family="sans-serif" font-size="14" font-weight="bold" lengthAdjust="spacing" textLength="90.4805" x="344.8384" y="59.292">Sistem ZEO</text></g><g id="elem_UC_LOGIN"><ellipse cx="390.1429" cy="652.5097" fill="#F1F1F1" rx="69.0643" ry="16.2129" style="stroke:#181818;stroke-width:0.5;"/><text fill="#000000" font-family="sans-serif" font-size="14" lengthAdjust="spacing" textLength="90.2754" x="342.0052" y="656.2573">Login Sistem</text></g><g id="elem_UC_MENU"><ellipse cx="389.9769" cy="100.1765" fill="#F1F1F1" rx="89.8983" ry="20.3797" style="stroke:#181818;stroke-width:0.5;"/><text fill="#000000" font-family="sans-serif" font-size="14" lengthAdjust="spacing" textLength="141.5107" x="319.2215" y="103.0232">Kelola Menu (CRUD)</text></g><g id="elem_UC_LAPORAN"><ellipse cx="390.1387" cy="182.3441" fill="#F1F1F1" rx="106.5601" ry="26.0473" style="stroke:#181818;stroke-width:0.5;"/><text fill="#000000" font-family="sans-serif" font-size="14" lengthAdjust="spacing" textLength="96.1201" x="342.0786" y="177.0424">Lihat Laporan</text><text fill="#000000" font-family="sans-serif" font-size="14" lengthAdjust="spacing" textLength="134.4561" x="322.9107" y="193.3393">Pendapatan Harian</text></g><g id="elem_UC_INVENTARIS"><ellipse cx="389.9313" cy="262.0674" fill="#F1F1F1" rx="79.3527" ry="18.2705" style="stroke:#181818;stroke-width:0.5;"/><text fill="#000000" font-family="sans-serif" font-size="14" lengthAdjust="spacing" textLength="116.9492" x="329.5428" y="265.5199">Kelola Inventaris</text></g><g id="elem_UC_ROLE"><ellipse cx="390.0545" cy="336.492" fill="#F1F1F1" rx="88.9759" ry="20.1952" style="stroke:#181818;stroke-width:0.5;"/><text fill="#000000" font-family="sans-serif" font-size="14" lengthAdjust="spacing" textLength="139.4189" x="320.345" y="339.3387">Atur Role Pengguna</text></g><g id="elem_UC_TERIMA"><ellipse cx="390.2243" cy="583.226" fill="#F1F1F1" rx="77.6457" ry="17.9291" style="stroke:#181818;stroke-width:0.5;"/><text fill="#000000" font-family="sans-serif" font-size="14" lengthAdjust="spacing" textLength="112.7314" x="331.2602" y="586.8682">Terima Pesanan</text></g><g id="elem_UC_BAYAR"><ellipse cx="390.2146" cy="411.4241" fill="#F1F1F1" rx="88.636" ry="20.1272" style="stroke:#181818;stroke-width:0.5;"/><text fill="#000000" font-family="sans-serif" font-size="14" lengthAdjust="spacing" textLength="138.6465" x="320.8913" y="414.2707">Proses Pembayaran</text></g><g id="elem_UC_STRUK"><ellipse cx="389.9005" cy="506.1613" fill="#F1F1F1" rx="104.8219" ry="23.3644" style="stroke:#181818;stroke-width:0.5;"/><text fill="#000000" font-family="sans-serif" font-size="14" lengthAdjust="spacing" textLength="174.6309" x="302.5851" y="509.0079">Cetak Struk Digital (PDF)</text></g><g id="elem_UC_STATUS"><ellipse cx="390.311" cy="726.1434" fill="#F1F1F1" rx="99.7324" ry="22.3465" style="stroke:#181818;stroke-width:0.5;"/><text fill="#000000" font-family="sans-serif" font-size="14" lengthAdjust="spacing" textLength="163.4678" x="308.5771" y="728.99">Update Status Pesanan</text></g><g id="elem_UC_SCAN"><ellipse cx="390.091" cy="803.4994" fill="#F1F1F1" rx="86.5124" ry="19.7025" style="stroke:#181818;stroke-width:0.5;"/><text fill="#000000" font-family="sans-serif" font-size="14" lengthAdjust="spacing" textLength="133.7998" x="323.1911" y="806.346">Scan Barcode Meja</text></g><g id="elem_UC_KATALOG"><ellipse cx="390.1694" cy="899.115" fill="#F1F1F1" rx="109.5908" ry="24.3182" style="stroke:#181818;stroke-width:0.5;"/><text fill="#000000" font-family="sans-serif" font-size="14" lengthAdjust="spacing" textLength="184.9941" x="297.6723" y="901.9617">Lihat Katalog Menu Digital</text></g><g id="elem_UC_KERANJANG"><ellipse cx="389.8513" cy="988.3514" fill="#F1F1F1" rx="135.7727" ry="29.5545" style="stroke:#181818;stroke-width:0.5;"/><text fill="#000000" font-family="sans-serif" font-size="14" lengthAdjust="spacing" textLength="240.7344" x="269.4841" y="991.1981">Self-Order (Tambah ke Keranjang)</text></g><g id="elem_UC_KONFIRMASI"><ellipse cx="390.0613" cy="1089.3934" fill="#F1F1F1" rx="88.4827" ry="20.0965" style="stroke:#181818;stroke-width:0.5;"/><text fill="#000000" font-family="sans-serif" font-size="14" lengthAdjust="spacing" textLength="138.2979" x="320.9124" y="1092.2401">Konfirmasi Pesanan</text></g><!--entity OW--><g id="elem_OW"><ellipse cx="79.9346" cy="232.7969" fill="#F1F1F1" rx="8" ry="8" style="stroke:#181818;stroke-width:0.5;"/><path d="M79.9346,240.7969 L79.9346,267.7969 M66.9346,248.7969 L92.9346,248.7969 M79.9346,267.7969 L66.9346,282.7969 M79.9346,267.7969 L92.9346,282.7969 " fill="none" style="stroke:#181818;stroke-width:0.5;"/><text fill="#000000" font-family="sans-serif" font-size="14" lengthAdjust="spacing" textLength="45.7119" x="57.0786" y="297.292">Owner</text></g><!--entity KB--><g id="elem_KB"><ellipse cx="79.8325" cy="553.7969" fill="#F1F1F1" rx="8" ry="8" style="stroke:#181818;stroke-width:0.5;"/><path d="M79.8325,561.7969 L79.8325,588.7969 M66.8325,569.7969 L92.8325,569.7969 M79.8325,588.7969 L66.8325,603.7969 M79.8325,588.7969 L92.8325,603.7969 " fill="none" style="stroke:#181818;stroke-width:0.5;"/><text fill="#000000" font-family="sans-serif" font-size="14" lengthAdjust="spacing" textLength="97.5078" x="31.0786" y="618.292">Kasir / Barista</text></g><!--entity PL--><g id="elem_PL"><ellipse cx="79.8901" cy="869.7969" fill="#F1F1F1" rx="8" ry="8" style="stroke:#181818;stroke-width:0.5;"/><path d="M79.8901,877.7969 L79.8901,904.7969 M66.8901,885.7969 L92.8901,885.7969 M79.8901,904.7969 L66.8901,919.7969 M79.8901,904.7969 L92.8901,919.7969 " fill="none" style="stroke:#181818;stroke-width:0.5;"/><text fill="#000000" font-family="sans-serif" font-size="14" lengthAdjust="spacing" textLength="73.623" x="43.0786" y="934.292">Pelanggan</text></g><!--link OW to UC_LOGIN--><g id="link_OW_UC_LOGIN"><path d="M100.5586,300.5569 C130.1886,359.9869 186.8386,478.6469 222.0786,584.2969 C226.9886,599.0269 218.9886,607.4369 230.0786,618.2969 C253.8686,641.6069 283.5351,650.0938 315.0451,653.0638 " fill="none" id="OW-to-UC_LOGIN" style="stroke:#181818;stroke-width:1.0;"/><polygon fill="#181818" points="321.0186,653.6269,312.4337,648.8,316.0407,653.1577,311.683,656.7647,321.0186,653.6269" style="stroke:#181818;stroke-width:1.0;"/></g><!--link OW to UC_MENU--><g id="link_OW_UC_MENU"><path d="M103.3886,237.8969 C130.5786,209.6469 179.2286,163.7669 230.0786,138.2969 C255.7086,125.4569 279.9986,118.0793 307.1186,112.3393 " fill="none" id="OW-to-UC_MENU" style="stroke:#181818;stroke-width:1.0;"/><polygon fill="#181818" points="312.9886,111.0969,303.3554,109.0471,308.097,112.1322,305.0119,116.8738,312.9886,111.0969" style="stroke:#181818;stroke-width:1.0;"/></g><!--link OW to UC_LAPORAN--><g id="link_OW_UC_LAPORAN"><path d="M103.0986,254.3569 C118.6386,248.9069 139.9886,241.7069 159.0786,236.2969 C208.5086,222.2869 258.7608,210.3555 303.1908,200.5055 " fill="none" id="OW-to-UC_LAPORAN" style="stroke:#181818;stroke-width:1.0;"/><polygon fill="#181818" points="309.0486,199.2069,299.3962,197.2497,304.1671,200.2891,301.1277,205.06,309.0486,199.2069" style="stroke:#181818;stroke-width:1.0;"/></g><!--link OW to UC_INVENTARIS--><g id="link_OW_UC_INVENTARIS"><path d="M103.2286,262.2969 C145.9186,262.2969 235.4486,262.2969 304.3386,262.2969 " fill="none" id="OW-to-UC_INVENTARIS" style="stroke:#181818;stroke-width:1.0;"/><polygon fill="#181818" points="310.3386,262.2969,301.3386,258.2969,305.3386,262.2969,301.3386,266.2969,310.3386,262.2969" style="stroke:#181818;stroke-width:1.0;"/></g><!--link OW to UC_ROLE--><g id="link_OW_UC_ROLE"><path d="M103.2886,267.6769 C132.3986,274.7369 185.0586,287.4769 230.0786,298.2969 C262.5086,306.0869 292.8225,313.3443 322.4525,320.4143 " fill="none" id="OW-to-UC_ROLE" style="stroke:#181818;stroke-width:1.0;"/><polygon fill="#181818" points="328.2886,321.8069,320.4627,315.8273,323.4251,320.6464,318.606,323.6088,328.2886,321.8069" style="stroke:#181818;stroke-width:1.0;"/></g><!--link KB to UC_LOGIN--><g id="link_KB_UC_LOGIN"><path d="M129.3386,594.8869 C158.4786,601.8269 196.3686,610.7369 230.0786,618.2969 C266.1586,626.3869 301.0775,633.8699 332.3075,640.4499 " fill="none" id="KB-to-UC_LOGIN" style="stroke:#181818;stroke-width:1.0;"/><polygon fill="#181818" points="338.1786,641.6869,330.1966,635.9173,333.286,640.656,328.5473,643.7454,338.1786,641.6869" style="stroke:#181818;stroke-width:1.0;"/></g><!--link KB to UC_TERIMA--><g id="link_KB_UC_TERIMA"><path d="M129.1986,583.2969 C178.2686,583.2969 249.1286,583.2969 306.5486,583.2969 " fill="none" id="KB-to-UC_TERIMA" style="stroke:#181818;stroke-width:1.0;"/><polygon fill="#181818" points="312.5486,583.2969,303.5486,579.2969,307.5486,583.2969,303.5486,587.2969,312.5486,583.2969" style="stroke:#181818;stroke-width:1.0;"/></g><!--link KB to UC_BAYAR--><g id="link_KB_UC_BAYAR"><path d="M121.3786,545.0769 C149.9086,519.6569 190.0886,487.0769 230.0786,465.2969 C261.4386,448.2169 293.4392,436.799 324.2892,427.789 " fill="none" id="KB-to-UC_BAYAR" style="stroke:#181818;stroke-width:1.0;"/><polygon fill="#181818" points="330.0486,426.1069,320.2881,424.7904,325.2491,427.5086,322.5309,432.4696,330.0486,426.1069" style="stroke:#181818;stroke-width:1.0;"/></g><!--link KB to UC_STRUK--><g id="link_KB_UC_STRUK"><path d="M129.1086,566.4269 C138.9586,563.2069 149.3086,559.9969 159.0786,557.2969 C208.9386,543.4969 259.8131,532.1028 304.4631,522.8628 " fill="none" id="KB-to-UC_STRUK" style="stroke:#181818;stroke-width:1.0;"/><polygon fill="#181818" points="310.3386,521.6469,300.7148,519.5537,305.4424,522.6601,302.3359,527.3877,310.3386,521.6469" style="stroke:#181818;stroke-width:1.0;"/></g><!--link KB to UC_STATUS--><g id="link_KB_UC_STATUS"><path d="M127.5186,621.3569 C155.7086,642.8069 193.2586,668.5769 230.0786,685.2969 C255.9086,697.0269 279.8429,704.4323 306.5829,710.8223 " fill="none" id="KB-to-UC_STATUS" style="stroke:#181818;stroke-width:1.0;"/><polygon fill="#181818" points="312.4186,712.2169,304.5948,706.2346,307.5555,711.0548,302.7354,714.0155,312.4186,712.2169" style="stroke:#181818;stroke-width:1.0;"/></g><!--link PL to UC_LOGIN--><g id="link_PL_UC_LOGIN"><path d="M96.0086,860.9469 C117.5086,811.3969 162.2186,726.6869 230.0786,686.2969 C258.2186,669.5469 287.5597,661.8509 317.7397,657.5109 " fill="none" id="PL-to-UC_LOGIN" style="stroke:#181818;stroke-width:1.0;"/><polygon fill="#181818" points="323.6786,656.6569,314.2009,653.9787,318.7295,657.3686,315.3396,661.8972,323.6786,656.6569" style="stroke:#181818;stroke-width:1.0;"/></g><!--link PL to UC_SCAN--><g id="link_PL_UC_SCAN"><path d="M117.1286,887.0569 C130.3086,882.6469 145.3386,877.6769 159.0786,873.2969 C219.9186,853.8969 284.439,834.4019 331.139,820.4719 " fill="none" id="PL-to-UC_SCAN" style="stroke:#181818;stroke-width:1.0;"/><polygon fill="#181818" points="336.8886,818.7569,327.1208,817.4963,332.0972,820.1861,329.4075,825.1626,336.8886,818.7569" style="stroke:#181818;stroke-width:1.0;"/></g><!--link PL to UC_KATALOG--><g id="link_PL_UC_KATALOG"><path d="M117.3186,899.2969 C157.2286,899.2969 217.3186,899.2969 274.3286,899.2969 " fill="none" id="PL-to-UC_KATALOG" style="stroke:#181818;stroke-width:1.0;"/><polygon fill="#181818" points="280.3286,899.2969,271.3286,895.2969,275.3286,899.2969,271.3286,903.2969,280.3286,899.2969" style="stroke:#181818;stroke-width:1.0;"/></g><!--link PL to UC_KERANJANG--><g id="link_PL_UC_KERANJANG"><path d="M117.3186,909.7669 C163.8286,923.2069 240.1246,945.2507 301.9446,963.1207 " fill="none" id="PL-to-UC_KERANJANG" style="stroke:#181818;stroke-width:1.0;"/><polygon fill="#181818" points="307.7086,964.7869,300.1734,958.4449,302.9053,963.3984,297.9518,966.1303,307.7086,964.7869" style="stroke:#181818;stroke-width:1.0;"/></g><!--link PL to UC_KONFIRMASI--><g id="link_PL_UC_KONFIRMASI"><path d="M114.4286,937.4069 C142.6186,967.5969 185.4486,1008.9269 230.0786,1035.2969 C260.3286,1053.1669 291.5595,1064.5283 322.2495,1073.2983 " fill="none" id="PL-to-UC_KONFIRMASI" style="stroke:#181818;stroke-width:1.0;"/><polygon fill="#181818" points="328.0186,1074.9469,320.4641,1068.628,323.2111,1073.5731,318.266,1076.3201,328.0186,1074.9469" style="stroke:#181818;stroke-width:1.0;"/></g><!--link UC_BAYAR to UC_STRUK--><g id="link_UC_BAYAR_UC_STRUK"><path d="M390.0786,431.4069 C390.0786,446.2869 390.0786,460.6069 390.0786,476.3269 " fill="none" id="UC_BAYAR-to-UC_STRUK" style="stroke:#181818;stroke-width:1.0;stroke-dasharray:7.0,7.0;"/><polygon fill="#181818" points="390.0786,482.3269,394.0786,473.3269,390.0786,477.3269,386.0786,473.3269,390.0786,482.3269" style="stroke:#181818;stroke-width:1.0;"/><text fill="#000000" font-family="sans-serif" font-size="13" lengthAdjust="spacing" textLength="63.0068" x="347.0786" y="461.6138">&#171;include&#187;</text></g><!--link UC_SCAN to UC_KATALOG--><g id="link_UC_SCAN_UC_KATALOG"><path d="M390.0786,823.0969 C390.0786,838.0269 390.0786,852.5769 390.0786,868.5769 " fill="none" id="UC_SCAN-to-UC_KATALOG" style="stroke:#181818;stroke-width:1.0;stroke-dasharray:7.0,7.0;"/><polygon fill="#181818" points="390.0786,874.5769,394.0786,865.5769,390.0786,869.5769,386.0786,865.5769,390.0786,874.5769" style="stroke:#181818;stroke-width:1.0;"/><text fill="#000000" font-family="sans-serif" font-size="13" lengthAdjust="spacing" textLength="63.0068" x="347.0786" y="853.3638">&#171;include&#187;</text></g><!--link UC_KERANJANG to UC_KONFIRMASI--><g id="link_UC_KERANJANG_UC_KONFIRMASI"><path d="M390.0786,1017.8969 C390.0786,1034.2769 390.0786,1048.2169 390.0786,1062.8569 " fill="none" id="UC_KERANJANG-to-UC_KONFIRMASI" style="stroke:#181818;stroke-width:1.0;stroke-dasharray:7.0,7.0;"/><polygon fill="#181818" points="390.0786,1068.8569,394.0786,1059.8569,390.0786,1063.8569,386.0786,1059.8569,390.0786,1068.8569" style="stroke:#181818;stroke-width:1.0;"/><text fill="#000000" font-family="sans-serif" font-size="13" lengthAdjust="spacing" textLength="63.0068" x="347.0786" y="1048.1138">&#171;include&#187;</text></g><!--link UC_KONFIRMASI to UC_TERIMA--><g id="link_UC_KONFIRMASI_UC_TERIMA"><path d="M311.1286,1080.0769 C281.5786,1072.6369 250.3086,1059.2669 230.0786,1035.2969 C155.4686,946.8869 178.5786,892.6869 192.0786,777.7969 C200.5786,705.4169 178.0786,669.3469 230.0786,618.2969 C251.6886,597.0869 277.0644,588.2829 306.2744,584.2729 " fill="none" id="UC_KONFIRMASI-to-UC_TERIMA" style="stroke:#181818;stroke-width:1.0;stroke-dasharray:7.0,7.0;"/><polygon fill="#181818" points="312.2186,583.4569,302.7582,580.7181,307.2651,584.1369,303.8463,588.6438,312.2186,583.4569" style="stroke:#181818;stroke-width:1.0;"/><text fill="#000000" font-family="sans-serif" font-size="13" lengthAdjust="spacing" textLength="61.1851" x="160.0786" y="790.8638">&#171;extend&#187;</text></g><!--SRC=[pLJRRjim37tNLn1vsBg7jEz3KS19tCrpOXk-hDWmO60JnL7ho84aRok60Vk8VU6-PFHLYTV75cXW1215IkGvXpJ251mopM6EzBSGc2lSmnGIeGtVGnGcy0fMAF6Exxa4JtxZqg0I6YQVtN12QLlEMC6t1am9IkGx0nkX-Dg8KZA6QrCg2BzBhW0rX3UTP-AZ5WekO5RVPN1Id_gpxZJY1SeyHrbxeoLZzNtaeL8dNM7DupyP0_gzXhz_VjFNzB6cFZJe7Ig-WTi7mAA0vbRTHJtLrpnTQLu_29DbcGlPeTOqays_BiDtNZ0giONYQIjvphvyNfG5mehB2ixcSRPuqtUtSeDiX87OeO4b7ag5yekCkDpW0OauU4yiennmSQ8mTe977x82wwEzuACRf4xi9QS9ZgaKn2LfWXxAyqfYdn67ItS4-qXky98WJhaIUwGkD8tP05BgnjxAEOsCL5cBE-BxMtn0PODdpYSdFesTSuFta1XLtTDOvy9W0MVHudhWBqdZp3_DoGuRD9oIq5HwN52IEccMZ72ra_goPPoigKGYVrrkE8dvRj1ACXyBiLMnJxejohmLVeTVd-CxgKEpFNg15zjfg3OqtMSf4a4xkEVWSsBfZY0QOFTTalu79nYb-wNS2hKdcOvnzyFWsejNJkAnNumDo3jQbsk1zPhLBt6ViF06fjChkmUjtMoEe-Dk7LZFqSXRPplL_kpqLcjt0sCTxL1OknNyiTqAEbgUNcdjHXpMx7a_yWna7laiNvOjJwwBYgHt0UuFGtiH50rEmzrE79wPFzPZ0USM1tWBbvUYhUhgYdNDGXVITVf_qD1m7pWq-qYiFJi_OgW9v0qA5FSF]--></g></svg>